<svg xmlns="http://www.w3.org/2000/svg" xmlns:xlink="http://www.w3.org/1999/xlink" width="500" zoomAndPan="magnify" viewBox="0 0 375 374.999991" height="500" preserveAspectRatio="xMidYMid meet" version="1.0"><defs><g/><clipPath id="469685fc1e"><path d="M 4.703125 171.523438 L 372.152344 171.523438 L 372.152344 205.972656 L 4.703125 205.972656 Z M 4.703125 171.523438 " clip-rule="nonzero"/></clipPath><clipPath id="c25ab1b773"><path d="M 62 178 L 69 178 L 69 185 L 62 185 Z M 62 178 " clip-rule="nonzero"/></clipPath><clipPath id="96456832cb"><path d="M 64.613281 176.71875 L 70.324219 181.582031 L 66.921875 185.578125 L 61.210938 180.71875 Z M 64.613281 176.71875 " clip-rule="nonzero"/></clipPath><clipPath id="26d8e05ab9"><path d="M 64.613281 176.71875 L 70.324219 181.582031 L 66.921875 185.578125 L 61.210938 180.71875 Z M 64.613281 176.71875 " clip-rule="nonzero"/></clipPath><clipPath id="a91f4dd32b"><path d="M 64.613281 176.71875 L 70.324219 181.582031 L 66.921875 185.578125 L 61.210938 180.71875 Z M 64.613281 176.71875 " clip-rule="nonzero"/></clipPath><clipPath id="86bdbc55f9"><path d="M 68.234375 184.03125 C 68.0625 184.234375 67.820312 184.371094 67.515625 184.4375 C 67.207031 184.503906 66.859375 184.496094 66.46875 184.414062 C 66.078125 184.332031 65.675781 184.179688 65.257812 183.960938 C 64.839844 183.742188 64.445312 183.472656 64.066406 183.148438 C 63.6875 182.828125 63.355469 182.476562 63.074219 182.101562 C 62.792969 181.726562 62.578125 181.351562 62.433594 180.980469 C 62.289062 180.605469 62.226562 180.261719 62.242188 179.949219 C 62.257812 179.636719 62.355469 179.378906 62.527344 179.175781 C 62.703125 178.96875 62.941406 178.832031 63.25 178.765625 C 63.554688 178.699219 63.902344 178.707031 64.292969 178.792969 C 64.6875 178.875 65.089844 179.023438 65.507812 179.242188 C 65.921875 179.464844 66.320312 179.734375 66.699219 180.054688 C 67.078125 180.378906 67.40625 180.726562 67.691406 181.101562 C 67.972656 181.480469 68.1875 181.851562 68.332031 182.226562 C 68.476562 182.597656 68.539062 182.941406 68.523438 183.253906 C 68.507812 183.566406 68.410156 183.824219 68.234375 184.03125 Z M 68.234375 184.03125 " clip-rule="nonzero"/></clipPath><linearGradient x1="256" gradientTransform="matrix(0.0136843, 0.0116452, -0.0121516, 0.0142794, 65.374675, 174.513406)" y1="514.65846" x2="256" gradientUnits="userSpaceOnUse" y2="60.701202" id="1f971f8e38"><stop stop-opacity="1" stop-color="rgb(71.398926%, 46.699524%, 19.198608%)" offset="0"/><stop stop-opacity="1" stop-color="rgb(71.398926%, 46.699524%, 19.198608%)" offset="0.25"/><stop stop-opacity="1" stop-color="rgb(71.398926%, 46.699524%, 19.198608%)" offset="0.257812"/><stop stop-opacity="1" stop-color="rgb(71.554565%, 46.925354%, 19.252014%)" offset="0.261719"/><stop stop-opacity="1" stop-color="rgb(71.710205%, 47.15271%, 19.30542%)" offset="0.265625"/><stop stop-opacity="1" stop-color="rgb(71.995544%, 47.569275%, 19.403076%)" offset="0.269531"/><stop stop-opacity="1" stop-color="rgb(72.28241%, 47.987366%, 19.502258%)" offset="0.273438"/><stop stop-opacity="1" stop-color="rgb(72.569275%, 48.403931%, 19.599915%)" offset="0.277344"/><stop stop-opacity="1" stop-color="rgb(72.85614%, 48.822021%, 19.699097%)" offset="0.28125"/><stop stop-opacity="1" stop-color="rgb(73.141479%, 49.238586%, 19.796753%)" offset="0.285156"/><stop stop-opacity="1" stop-color="rgb(73.428345%, 49.656677%, 19.894409%)" offset="0.289063"/><stop stop-opacity="1" stop-color="rgb(73.71521%, 50.073242%, 19.992065%)" offset="0.292969"/><stop stop-opacity="1" stop-color="rgb(74.002075%, 50.491333%, 20.091248%)" offset="0.296875"/><stop stop-opacity="1" stop-color="rgb(74.287415%, 50.907898%, 20.188904%)" offset="0.300781"/><stop stop-opacity="1" stop-color="rgb(74.57428%, 51.325989%, 20.288086%)" offset="0.304688"/><stop stop-opacity="1" stop-color="rgb(74.861145%, 51.74408%, 20.385742%)" offset="0.308594"/><stop stop-opacity="1" stop-color="rgb(75.14801%, 52.16217%, 20.484924%)" offset="0.3125"/><stop stop-opacity="1" stop-color="rgb(75.43335%, 52.578735%, 20.582581%)" offset="0.316406"/><stop stop-opacity="1" stop-color="rgb(75.720215%, 52.996826%, 20.680237%)" offset="0.320313"/><stop stop-opacity="1" stop-color="rgb(76.00708%, 53.413391%, 20.777893%)" offset="0.324219"/><stop stop-opacity="1" stop-color="rgb(76.293945%, 53.831482%, 20.877075%)" offset="0.328125"/><stop stop-opacity="1" stop-color="rgb(76.579285%, 54.248047%, 20.974731%)" offset="0.332031"/><stop stop-opacity="1" stop-color="rgb(76.86615%, 54.666138%, 21.073914%)" offset="0.335938"/><stop stop-opacity="1" stop-color="rgb(77.153015%, 55.082703%, 21.17157%)" offset="0.339844"/><stop stop-opacity="1" stop-color="rgb(77.43988%, 55.500793%, 21.270752%)" offset="0.34375"/><stop stop-opacity="1" stop-color="rgb(77.72522%, 55.917358%, 21.368408%)" offset="0.347656"/><stop stop-opacity="1" stop-color="rgb(78.012085%, 56.335449%, 21.466064%)" offset="0.351563"/><stop stop-opacity="1" stop-color="rgb(78.294373%, 56.744385%, 21.562195%)" offset="0.355469"/><stop stop-opacity="1" stop-color="rgb(78.578186%, 57.154846%, 21.658325%)" offset="0.359375"/><stop stop-opacity="1" stop-color="rgb(78.85437%, 57.546997%, 21.749878%)" offset="0.363281"/><stop stop-opacity="1" stop-color="rgb(79.130554%, 57.940674%, 21.841431%)" offset="0.367188"/><stop stop-opacity="1" stop-color="rgb(79.406738%, 58.332825%, 21.931458%)" offset="0.371094"/><stop stop-opacity="1" stop-color="rgb(79.682922%, 58.726501%, 22.02301%)" offset="0.375"/><stop stop-opacity="1" stop-color="rgb(79.959106%, 59.118652%, 22.114563%)" offset="0.378906"/><stop stop-opacity="1" stop-color="rgb(80.235291%, 59.512329%, 22.206116%)" offset="0.382812"/><stop stop-opacity="1" stop-color="rgb(80.509949%, 59.90448%, 22.296143%)" offset="0.386719"/><stop stop-opacity="1" stop-color="rgb(80.786133%, 60.298157%, 22.387695%)" offset="0.390625"/><stop stop-opacity="1" stop-color="rgb(81.062317%, 60.690308%, 22.479248%)" offset="0.394531"/><stop stop-opacity="1" stop-color="rgb(81.338501%, 61.083984%, 22.570801%)" offset="0.398438"/><stop stop-opacity="1" stop-color="rgb(81.614685%, 61.476135%, 22.660828%)" offset="0.402344"/><stop stop-opacity="1" stop-color="rgb(81.890869%, 61.869812%, 22.75238%)" offset="0.40625"/><stop stop-opacity="1" stop-color="rgb(82.165527%, 62.261963%, 22.843933%)" offset="0.410156"/><stop stop-opacity="1" stop-color="rgb(82.441711%, 62.65564%, 22.935486%)" offset="0.414063"/><stop stop-opacity="1" stop-color="rgb(82.717896%, 63.047791%, 23.027039%)" offset="0.417969"/><stop stop-opacity="1" stop-color="rgb(82.99408%, 63.441467%, 23.118591%)" offset="0.421875"/><stop stop-opacity="1" stop-color="rgb(83.270264%, 63.833618%, 23.208618%)" offset="0.425781"/><stop stop-opacity="1" stop-color="rgb(83.546448%, 64.227295%, 23.300171%)" offset="0.429688"/><stop stop-opacity="1" stop-color="rgb(83.822632%, 64.619446%, 23.391724%)" offset="0.433594"/><stop stop-opacity="1" stop-color="rgb(84.098816%, 65.013123%, 23.483276%)" offset="0.4375"/><stop stop-opacity="1" stop-color="rgb(84.373474%, 65.405273%, 23.573303%)" offset="0.441406"/><stop stop-opacity="1" stop-color="rgb(84.649658%, 65.79895%, 23.664856%)" offset="0.445313"/><stop stop-opacity="1" stop-color="rgb(84.925842%, 66.191101%, 23.756409%)" offset="0.449219"/><stop stop-opacity="1" stop-color="rgb(85.202026%, 66.584778%, 23.847961%)" offset="0.453125"/><stop stop-opacity="1" stop-color="rgb(85.47821%, 66.976929%, 23.937988%)" offset="0.457031"/><stop stop-opacity="1" stop-color="rgb(85.754395%, 67.370605%, 24.029541%)" offset="0.460938"/><stop stop-opacity="1" stop-color="rgb(86.029053%, 67.762756%, 24.121094%)" offset="0.464844"/><stop stop-opacity="1" stop-color="rgb(86.305237%, 68.156433%, 24.212646%)" offset="0.46875"/><stop stop-opacity="1" stop-color="rgb(86.581421%, 68.548584%, 24.302673%)" offset="0.472656"/><stop stop-opacity="1" stop-color="rgb(86.857605%, 68.942261%, 24.394226%)" offset="0.476563"/><stop stop-opacity="1" stop-color="rgb(87.133789%, 69.334412%, 24.485779%)" offset="0.480469"/><stop stop-opacity="1" stop-color="rgb(87.409973%, 69.728088%, 24.577332%)" offset="0.484375"/><stop stop-opacity="1" stop-color="rgb(87.686157%, 70.120239%, 24.668884%)" offset="0.488281"/><stop stop-opacity="1" stop-color="rgb(87.962341%, 70.513916%, 24.760437%)" offset="0.492188"/><stop stop-opacity="1" stop-color="rgb(88.237%, 70.906067%, 24.850464%)" offset="0.496094"/><stop stop-opacity="1" stop-color="rgb(88.513184%, 71.299744%, 24.942017%)" offset="0.5"/><stop stop-opacity="1" stop-color="rgb(88.789368%, 71.691895%, 25.033569%)" offset="0.503906"/><stop stop-opacity="1" stop-color="rgb(89.065552%, 72.085571%, 25.125122%)" offset="0.507813"/><stop stop-opacity="1" stop-color="rgb(89.341736%, 72.477722%, 25.215149%)" offset="0.511719"/><stop stop-opacity="1" stop-color="rgb(89.61792%, 72.871399%, 25.306702%)" offset="0.515625"/><stop stop-opacity="1" stop-color="rgb(89.892578%, 73.26355%, 25.398254%)" offset="0.519531"/><stop stop-opacity="1" stop-color="rgb(90.168762%, 73.657227%, 25.489807%)" offset="0.523438"/><stop stop-opacity="1" stop-color="rgb(90.379333%, 73.959351%, 25.558472%)" offset="0.527344"/><stop stop-opacity="1" stop-color="rgb(90.591431%, 74.263%, 25.627136%)" offset="0.53125"/><stop stop-opacity="1" stop-color="rgb(90.79895%, 74.560547%, 25.694275%)" offset="0.535156"/><stop stop-opacity="1" stop-color="rgb(91.00647%, 74.859619%, 25.761414%)" offset="0.539063"/><stop stop-opacity="1" stop-color="rgb(91.213989%, 75.157166%, 25.828552%)" offset="0.542969"/><stop stop-opacity="1" stop-color="rgb(91.421509%, 75.456238%, 25.895691%)" offset="0.546875"/><stop stop-opacity="1" stop-color="rgb(91.629028%, 75.753784%, 25.96283%)" offset="0.550781"/><stop stop-opacity="1" stop-color="rgb(91.836548%, 76.052856%, 26.029968%)" offset="0.554688"/><stop stop-opacity="1" stop-color="rgb(92.044067%, 76.350403%, 26.097107%)" offset="0.558594"/><stop stop-opacity="1" stop-color="rgb(92.251587%, 76.649475%, 26.164246%)" offset="0.5625"/><stop stop-opacity="1" stop-color="rgb(92.459106%, 76.947021%, 26.231384%)" offset="0.566406"/><stop stop-opacity="1" stop-color="rgb(92.668152%, 77.244568%, 26.298523%)" offset="0.570312"/><stop stop-opacity="1" stop-color="rgb(92.875671%, 77.542114%, 26.365662%)" offset="0.574219"/><stop stop-opacity="1" stop-color="rgb(93.083191%, 77.841187%, 26.4328%)" offset="0.578125"/><stop stop-opacity="1" stop-color="rgb(93.29071%, 78.138733%, 26.499939%)" offset="0.582031"/><stop stop-opacity="1" stop-color="rgb(93.49823%, 78.437805%, 26.567078%)" offset="0.585938"/><stop stop-opacity="1" stop-color="rgb(93.70575%, 78.735352%, 26.634216%)" offset="0.589844"/><stop stop-opacity="1" stop-color="rgb(93.913269%, 79.034424%, 26.702881%)" offset="0.59375"/><stop stop-opacity="1" stop-color="rgb(94.120789%, 79.33197%, 26.77002%)" offset="0.597656"/><stop stop-opacity="1" stop-color="rgb(94.328308%, 79.631042%, 26.837158%)" offset="0.601562"/><stop stop-opacity="1" stop-color="rgb(94.535828%, 79.928589%, 26.904297%)" offset="0.605469"/><stop stop-opacity="1" stop-color="rgb(94.743347%, 80.226135%, 26.971436%)" offset="0.609375"/><stop stop-opacity="1" stop-color="rgb(94.950867%, 80.523682%, 27.038574%)" offset="0.613281"/><stop stop-opacity="1" stop-color="rgb(95.158386%, 80.822754%, 27.105713%)" offset="0.617188"/><stop stop-opacity="1" stop-color="rgb(95.365906%, 81.1203%, 27.172852%)" offset="0.621094"/><stop stop-opacity="1" stop-color="rgb(95.573425%, 81.419373%, 27.23999%)" offset="0.625"/><stop stop-opacity="1" stop-color="rgb(95.780945%, 81.716919%, 27.307129%)" offset="0.628906"/><stop stop-opacity="1" stop-color="rgb(95.988464%, 82.015991%, 27.374268%)" offset="0.632812"/><stop stop-opacity="1" stop-color="rgb(96.195984%, 82.313538%, 27.441406%)" offset="0.636719"/><stop stop-opacity="1" stop-color="rgb(96.403503%, 82.61261%, 27.508545%)" offset="0.640625"/><stop stop-opacity="1" stop-color="rgb(96.611023%, 82.910156%, 27.575684%)" offset="0.644531"/><stop stop-opacity="1" stop-color="rgb(96.818542%, 83.209229%, 27.642822%)" offset="0.648438"/><stop stop-opacity="1" stop-color="rgb(97.026062%, 83.506775%, 27.709961%)" offset="0.652344"/><stop stop-opacity="1" stop-color="rgb(97.233582%, 83.804321%, 27.778625%)" offset="0.65625"/><stop stop-opacity="1" stop-color="rgb(97.375488%, 84.008789%, 27.82135%)" offset="0.660156"/><stop stop-opacity="1" stop-color="rgb(97.518921%, 84.214783%, 27.864075%)" offset="0.664062"/><stop stop-opacity="1" stop-color="rgb(97.648621%, 84.402466%, 27.902222%)" offset="0.671875"/><stop stop-opacity="1" stop-color="rgb(97.90802%, 84.779358%, 27.980042%)" offset="0.679688"/><stop stop-opacity="1" stop-color="rgb(98.167419%, 85.154724%, 28.056335%)" offset="0.6875"/><stop stop-opacity="1" stop-color="rgb(98.428345%, 85.53009%, 28.132629%)" offset="0.695313"/><stop stop-opacity="1" stop-color="rgb(98.687744%, 85.905457%, 28.210449%)" offset="0.703125"/><stop stop-opacity="1" stop-color="rgb(98.947144%, 86.280823%, 28.286743%)" offset="0.710938"/><stop stop-opacity="1" stop-color="rgb(99.208069%, 86.656189%, 28.364563%)" offset="0.71875"/><stop stop-opacity="1" stop-color="rgb(99.467468%, 87.031555%, 28.440857%)" offset="0.726563"/><stop stop-opacity="1" stop-color="rgb(99.728394%, 87.406921%, 28.518677%)" offset="0.734375"/><stop stop-opacity="1" stop-color="rgb(99.928284%, 87.696838%, 28.578186%)" offset="0.75"/><stop stop-opacity="1" stop-color="rgb(100%, 87.799072%, 28.599548%)" offset="1"/></linearGradient><clipPath id="03eeee2188"><path d="M 62 178 L 69 178 L 69 185 L 62 185 Z M 62 178 " clip-rule="nonzero"/></clipPath><clipPath id="6fb670d124"><path d="M 64.613281 176.71875 L 70.324219 181.582031 L 66.921875 185.578125 L 61.210938 180.71875 Z M 64.613281 176.71875 " clip-rule="nonzero"/></clipPath><clipPath id="8346b87c98"><path d="M 64.613281 176.71875 L 70.324219 181.582031 L 66.921875 185.578125 L 61.210938 180.71875 Z M 64.613281 176.71875 " clip-rule="nonzero"/></clipPath><clipPath id="9f35971124"><path d="M 64.613281 176.71875 L 70.324219 181.582031 L 66.921875 185.578125 L 61.210938 180.71875 Z M 64.613281 176.71875 " clip-rule="nonzero"/></clipPath><clipPath id="6a2bfc566e"><path d="M 64 178 L 69 178 L 69 183 L 64 183 Z M 64 178 " clip-rule="nonzero"/></clipPath><clipPath id="0559448cc1"><path d="M 64.613281 176.71875 L 70.324219 181.582031 L 66.921875 185.578125 L 61.210938 180.71875 Z M 64.613281 176.71875 " clip-rule="nonzero"/></clipPath><clipPath id="6db517adeb"><path d="M 64.613281 176.71875 L 70.324219 181.582031 L 66.921875 185.578125 L 61.210938 180.71875 Z M 64.613281 176.71875 " clip-rule="nonzero"/></clipPath><clipPath id="c19744ed35"><path d="M 64.613281 176.71875 L 70.324219 181.582031 L 66.921875 185.578125 L 61.210938 180.71875 Z M 64.613281 176.71875 " clip-rule="nonzero"/></clipPath><clipPath id="b984e21e3c"><path d="M 67.507812 179.183594 L 67.429688 179.117188 C 67.199219 178.921875 66.941406 178.78125 66.65625 178.695312 C 66.367188 178.605469 66.070312 178.578125 65.765625 178.609375 C 65.460938 178.640625 65.171875 178.726562 64.898438 178.871094 C 64.625 179.019531 64.386719 179.210938 64.183594 179.449219 C 63.738281 179.972656 64.160156 181.070312 65.132812 181.898438 C 66.101562 182.722656 67.253906 182.964844 67.699219 182.441406 C 67.902344 182.203125 68.054688 181.9375 68.152344 181.640625 C 68.253906 181.347656 68.292969 181.050781 68.277344 180.742188 C 68.257812 180.4375 68.183594 180.152344 68.050781 179.878906 C 67.917969 179.609375 67.734375 179.378906 67.507812 179.183594 Z M 67.507812 179.183594 " clip-rule="nonzero"/></clipPath><linearGradient x1="256" gradientTransform="matrix(0.0136843, 0.0116452, -0.0121516, 0.0142794, 65.374675, 174.513406)" y1="399.930242" x2="256" gradientUnits="userSpaceOnUse" y2="64.150895" id="894cff6d81"><stop stop-opacity="1" stop-color="rgb(71.398926%, 46.699524%, 19.198608%)" offset="0"/><stop stop-opacity="1" stop-color="rgb(71.398926%, 46.699524%, 19.198608%)" offset="0.25"/><stop stop-opacity="1" stop-color="rgb(71.398926%, 46.699524%, 19.198608%)" offset="0.265625"/><stop stop-opacity="1" stop-color="rgb(71.409607%, 46.714783%, 19.20166%)" offset="0.273438"/><stop stop-opacity="1" stop-color="rgb(71.601868%, 46.992493%, 19.265747%)" offset="0.277344"/><stop stop-opacity="1" stop-color="rgb(71.783447%, 47.253418%, 19.326782%)" offset="0.28125"/><stop stop-opacity="1" stop-color="rgb(71.963501%, 47.514343%, 19.386292%)" offset="0.285156"/><stop stop-opacity="1" stop-color="rgb(72.145081%, 47.775269%, 19.445801%)" offset="0.289062"/><stop stop-opacity="1" stop-color="rgb(72.325134%, 48.036194%, 19.50531%)" offset="0.292969"/><stop stop-opacity="1" stop-color="rgb(72.506714%, 48.297119%, 19.564819%)" offset="0.296875"/><stop stop-opacity="1" stop-color="rgb(72.686768%, 48.558044%, 19.624329%)" offset="0.300781"/><stop stop-opacity="1" stop-color="rgb(72.868347%, 48.81897%, 19.683838%)" offset="0.304688"/><stop stop-opacity="1" stop-color="rgb(73.048401%, 49.079895%, 19.743347%)" offset="0.308594"/><stop stop-opacity="1" stop-color="rgb(73.22998%, 49.34082%, 19.802856%)" offset="0.3125"/><stop stop-opacity="1" stop-color="rgb(73.410034%, 49.601746%, 19.862366%)" offset="0.316406"/><stop stop-opacity="1" stop-color="rgb(73.591614%, 49.862671%, 19.923401%)" offset="0.320312"/><stop stop-opacity="1" stop-color="rgb(73.771667%, 50.123596%, 19.98291%)" offset="0.324219"/><stop stop-opacity="1" stop-color="rgb(73.953247%, 50.384521%, 20.042419%)" offset="0.328125"/><stop stop-opacity="1" stop-color="rgb(74.133301%, 50.645447%, 20.101929%)" offset="0.332031"/><stop stop-opacity="1" stop-color="rgb(74.31488%, 50.906372%, 20.161438%)" offset="0.335938"/><stop stop-opacity="1" stop-color="rgb(74.494934%, 51.167297%, 20.220947%)" offset="0.339844"/><stop stop-opacity="1" stop-color="rgb(74.676514%, 51.428223%, 20.280457%)" offset="0.34375"/><stop stop-opacity="1" stop-color="rgb(74.856567%, 51.689148%, 20.339966%)" offset="0.347656"/><stop stop-opacity="1" stop-color="rgb(75.036621%, 51.950073%, 20.401001%)" offset="0.351562"/><stop stop-opacity="1" stop-color="rgb(75.216675%, 52.210999%, 20.46051%)" offset="0.355469"/><stop stop-opacity="1" stop-color="rgb(75.398254%, 52.471924%, 20.52002%)" offset="0.359375"/><stop stop-opacity="1" stop-color="rgb(75.578308%, 52.732849%, 20.579529%)" offset="0.363281"/><stop stop-opacity="1" stop-color="rgb(75.759888%, 52.993774%, 20.639038%)" offset="0.367187"/><stop stop-opacity="1" stop-color="rgb(75.939941%, 53.2547%, 20.698547%)" offset="0.371094"/><stop stop-opacity="1" stop-color="rgb(76.121521%, 53.515625%, 20.758057%)" offset="0.375"/><stop stop-opacity="1" stop-color="rgb(76.301575%, 53.77655%, 20.817566%)" offset="0.378906"/><stop stop-opacity="1" stop-color="rgb(76.483154%, 54.037476%, 20.878601%)" offset="0.382812"/><stop stop-opacity="1" stop-color="rgb(76.663208%, 54.298401%, 20.93811%)" offset="0.386719"/><stop stop-opacity="1" stop-color="rgb(76.844788%, 54.559326%, 20.99762%)" offset="0.390625"/><stop stop-opacity="1" stop-color="rgb(77.024841%, 54.820251%, 21.057129%)" offset="0.394531"/><stop stop-opacity="1" stop-color="rgb(77.206421%, 55.081177%, 21.116638%)" offset="0.398437"/><stop stop-opacity="1" stop-color="rgb(77.386475%, 55.342102%, 21.176147%)" offset="0.402344"/><stop stop-opacity="1" stop-color="rgb(77.568054%, 55.603027%, 21.235657%)" offset="0.40625"/><stop stop-opacity="1" stop-color="rgb(77.748108%, 55.863953%, 21.295166%)" offset="0.410156"/><stop stop-opacity="1" stop-color="rgb(77.929688%, 56.124878%, 21.356201%)" offset="0.414062"/><stop stop-opacity="1" stop-color="rgb(78.109741%, 56.385803%, 21.41571%)" offset="0.417969"/><stop stop-opacity="1" stop-color="rgb(78.291321%, 56.646729%, 21.47522%)" offset="0.421875"/><stop stop-opacity="1" stop-color="rgb(78.471375%, 56.907654%, 21.534729%)" offset="0.425781"/><stop stop-opacity="1" stop-color="rgb(78.652954%, 57.168579%, 21.594238%)" offset="0.429688"/><stop stop-opacity="1" stop-color="rgb(78.833008%, 57.429504%, 21.653748%)" offset="0.433594"/><stop stop-opacity="1" stop-color="rgb(79.014587%, 57.69043%, 21.713257%)" offset="0.4375"/><stop stop-opacity="1" stop-color="rgb(79.194641%, 57.951355%, 21.772766%)" offset="0.441406"/><stop stop-opacity="1" stop-color="rgb(79.376221%, 58.21228%, 21.832275%)" offset="0.445312"/><stop stop-opacity="1" stop-color="rgb(79.556274%, 58.473206%, 21.891785%)" offset="0.449219"/><stop stop-opacity="1" stop-color="rgb(79.737854%, 58.734131%, 21.95282%)" offset="0.453125"/><stop stop-opacity="1" stop-color="rgb(79.917908%, 58.995056%, 22.012329%)" offset="0.457031"/><stop stop-opacity="1" stop-color="rgb(80.099487%, 59.255981%, 22.071838%)" offset="0.460938"/><stop stop-opacity="1" stop-color="rgb(80.279541%, 59.516907%, 22.131348%)" offset="0.464844"/><stop stop-opacity="1" stop-color="rgb(80.461121%, 59.777832%, 22.190857%)" offset="0.46875"/><stop stop-opacity="1" stop-color="rgb(80.641174%, 60.038757%, 22.250366%)" offset="0.472656"/><stop stop-opacity="1" stop-color="rgb(80.821228%, 60.299683%, 22.309875%)" offset="0.476562"/><stop stop-opacity="1" stop-color="rgb(81.001282%, 60.560608%, 22.369385%)" offset="0.480469"/><stop stop-opacity="1" stop-color="rgb(81.182861%, 60.821533%, 22.43042%)" offset="0.484375"/><stop stop-opacity="1" stop-color="rgb(81.362915%, 61.082458%, 22.489929%)" offset="0.488281"/><stop stop-opacity="1" stop-color="rgb(81.544495%, 61.343384%, 22.549438%)" offset="0.492187"/><stop stop-opacity="1" stop-color="rgb(81.724548%, 61.604309%, 22.608948%)" offset="0.496094"/><stop stop-opacity="1" stop-color="rgb(81.906128%, 61.865234%, 22.668457%)" offset="0.5"/><stop stop-opacity="1" stop-color="rgb(82.104492%, 62.150574%, 22.73407%)" offset="0.503906"/><stop stop-opacity="1" stop-color="rgb(82.302856%, 62.435913%, 22.799683%)" offset="0.507812"/><stop stop-opacity="1" stop-color="rgb(82.507324%, 62.728882%, 22.865295%)" offset="0.511719"/><stop stop-opacity="1" stop-color="rgb(82.713318%, 63.021851%, 22.932434%)" offset="0.515625"/><stop stop-opacity="1" stop-color="rgb(82.917786%, 63.314819%, 22.999573%)" offset="0.519531"/><stop stop-opacity="1" stop-color="rgb(83.122253%, 63.609314%, 23.066711%)" offset="0.523438"/><stop stop-opacity="1" stop-color="rgb(83.326721%, 63.902283%, 23.13385%)" offset="0.527344"/><stop stop-opacity="1" stop-color="rgb(83.531189%, 64.195251%, 23.200989%)" offset="0.53125"/><stop stop-opacity="1" stop-color="rgb(83.735657%, 64.48822%, 23.268127%)" offset="0.535156"/><stop stop-opacity="1" stop-color="rgb(83.940125%, 64.782715%, 23.335266%)" offset="0.539062"/><stop stop-opacity="1" stop-color="rgb(84.144592%, 65.075684%, 23.402405%)" offset="0.542969"/><stop stop-opacity="1" stop-color="rgb(84.350586%, 65.368652%, 23.469543%)" offset="0.546875"/><stop stop-opacity="1" stop-color="rgb(84.555054%, 65.661621%, 23.536682%)" offset="0.550781"/><stop stop-opacity="1" stop-color="rgb(84.759521%, 65.956116%, 23.603821%)" offset="0.554687"/><stop stop-opacity="1" stop-color="rgb(84.963989%, 66.249084%, 23.670959%)" offset="0.558594"/><stop stop-opacity="1" stop-color="rgb(85.168457%, 66.542053%, 23.738098%)" offset="0.5625"/><stop stop-opacity="1" stop-color="rgb(85.372925%, 66.835022%, 23.805237%)" offset="0.566406"/><stop stop-opacity="1" stop-color="rgb(85.577393%, 67.127991%, 23.872375%)" offset="0.570312"/><stop stop-opacity="1" stop-color="rgb(85.78186%, 67.420959%, 23.939514%)" offset="0.574219"/><stop stop-opacity="1" stop-color="rgb(85.987854%, 67.715454%, 24.006653%)" offset="0.578125"/><stop stop-opacity="1" stop-color="rgb(86.192322%, 68.008423%, 24.073792%)" offset="0.582031"/><stop stop-opacity="1" stop-color="rgb(86.39679%, 68.301392%, 24.14093%)" offset="0.585937"/><stop stop-opacity="1" stop-color="rgb(86.601257%, 68.59436%, 24.208069%)" offset="0.589844"/><stop stop-opacity="1" stop-color="rgb(86.805725%, 68.888855%, 24.275208%)" offset="0.59375"/><stop stop-opacity="1" stop-color="rgb(87.010193%, 69.181824%, 24.342346%)" offset="0.597656"/><stop stop-opacity="1" stop-color="rgb(87.214661%, 69.474792%, 24.409485%)" offset="0.601562"/><stop stop-opacity="1" stop-color="rgb(87.419128%, 69.767761%, 24.476624%)" offset="0.605469"/><stop stop-opacity="1" stop-color="rgb(87.625122%, 70.062256%, 24.543762%)" offset="0.609375"/><stop stop-opacity="1" stop-color="rgb(87.82959%, 70.355225%, 24.609375%)" offset="0.613281"/><stop stop-opacity="1" stop-color="rgb(88.034058%, 70.648193%, 24.676514%)" offset="0.617188"/><stop stop-opacity="1" stop-color="rgb(88.238525%, 70.941162%, 24.743652%)" offset="0.621094"/><stop stop-opacity="1" stop-color="rgb(88.442993%, 71.235657%, 24.810791%)" offset="0.625"/><stop stop-opacity="1" stop-color="rgb(88.647461%, 71.528625%, 24.87793%)" offset="0.628906"/><stop stop-opacity="1" stop-color="rgb(88.851929%, 71.821594%, 24.945068%)" offset="0.632812"/><stop stop-opacity="1" stop-color="rgb(89.056396%, 72.114563%, 25.012207%)" offset="0.636719"/><stop stop-opacity="1" stop-color="rgb(89.260864%, 72.409058%, 25.079346%)" offset="0.640625"/><stop stop-opacity="1" stop-color="rgb(89.465332%, 72.702026%, 25.146484%)" offset="0.644531"/><stop stop-opacity="1" stop-color="rgb(89.671326%, 72.994995%, 25.213623%)" offset="0.648437"/><stop stop-opacity="1" stop-color="rgb(89.875793%, 73.287964%, 25.280762%)" offset="0.652344"/><stop stop-opacity="1" stop-color="rgb(90.080261%, 73.582458%, 25.3479%)" offset="0.65625"/><stop stop-opacity="1" stop-color="rgb(90.284729%, 73.875427%, 25.415039%)" offset="0.660156"/><stop stop-opacity="1" stop-color="rgb(90.489197%, 74.168396%, 25.482178%)" offset="0.664062"/><stop stop-opacity="1" stop-color="rgb(90.693665%, 74.461365%, 25.549316%)" offset="0.667969"/><stop stop-opacity="1" stop-color="rgb(90.898132%, 74.755859%, 25.616455%)" offset="0.671875"/><stop stop-opacity="1" stop-color="rgb(91.1026%, 75.048828%, 25.683594%)" offset="0.675781"/><stop stop-opacity="1" stop-color="rgb(91.308594%, 75.341797%, 25.750732%)" offset="0.679688"/><stop stop-opacity="1" stop-color="rgb(91.513062%, 75.634766%, 25.817871%)" offset="0.683594"/><stop stop-opacity="1" stop-color="rgb(91.717529%, 75.927734%, 25.88501%)" offset="0.6875"/><stop stop-opacity="1" stop-color="rgb(91.921997%, 76.220703%, 25.952148%)" offset="0.691406"/><stop stop-opacity="1" stop-color="rgb(92.126465%, 76.515198%, 26.019287%)" offset="0.695313"/><stop stop-opacity="1" stop-color="rgb(92.330933%, 76.808167%, 26.086426%)" offset="0.699219"/><stop stop-opacity="1" stop-color="rgb(92.5354%, 77.101135%, 26.153564%)" offset="0.703125"/><stop stop-opacity="1" stop-color="rgb(92.739868%, 77.394104%, 26.219177%)" offset="0.707031"/><stop stop-opacity="1" stop-color="rgb(92.945862%, 77.688599%, 26.286316%)" offset="0.710937"/><stop stop-opacity="1" stop-color="rgb(93.15033%, 77.981567%, 26.353455%)" offset="0.714844"/><stop stop-opacity="1" stop-color="rgb(93.354797%, 78.274536%, 26.420593%)" offset="0.71875"/><stop stop-opacity="1" stop-color="rgb(93.559265%, 78.567505%, 26.487732%)" offset="0.722656"/><stop stop-opacity="1" stop-color="rgb(93.763733%, 78.862%, 26.554871%)" offset="0.726562"/><stop stop-opacity="1" stop-color="rgb(93.968201%, 79.154968%, 26.622009%)" offset="0.730469"/><stop stop-opacity="1" stop-color="rgb(94.172668%, 79.447937%, 26.689148%)" offset="0.734375"/><stop stop-opacity="1" stop-color="rgb(94.377136%, 79.740906%, 26.756287%)" offset="0.738281"/><stop stop-opacity="1" stop-color="rgb(94.581604%, 80.0354%, 26.823425%)" offset="0.742188"/><stop stop-opacity="1" stop-color="rgb(94.786072%, 80.328369%, 26.890564%)" offset="0.746094"/><stop stop-opacity="1" stop-color="rgb(94.992065%, 80.621338%, 26.957703%)" offset="0.75"/><stop stop-opacity="1" stop-color="rgb(95.196533%, 80.914307%, 27.024841%)" offset="0.753906"/><stop stop-opacity="1" stop-color="rgb(95.401001%, 81.208801%, 27.09198%)" offset="0.757812"/><stop stop-opacity="1" stop-color="rgb(95.605469%, 81.50177%, 27.159119%)" offset="0.761719"/><stop stop-opacity="1" stop-color="rgb(95.809937%, 81.794739%, 27.226257%)" offset="0.765625"/><stop stop-opacity="1" stop-color="rgb(96.014404%, 82.087708%, 27.293396%)" offset="0.769531"/><stop stop-opacity="1" stop-color="rgb(96.218872%, 82.382202%, 27.360535%)" offset="0.773437"/><stop stop-opacity="1" stop-color="rgb(96.42334%, 82.675171%, 27.427673%)" offset="0.777344"/><stop stop-opacity="1" stop-color="rgb(96.629333%, 82.96814%, 27.494812%)" offset="0.78125"/><stop stop-opacity="1" stop-color="rgb(96.833801%, 83.261108%, 27.561951%)" offset="0.785156"/><stop stop-opacity="1" stop-color="rgb(97.038269%, 83.555603%, 27.629089%)" offset="0.789062"/><stop stop-opacity="1" stop-color="rgb(97.242737%, 83.848572%, 27.696228%)" offset="0.792969"/><stop stop-opacity="1" stop-color="rgb(97.447205%, 84.141541%, 27.763367%)" offset="0.796875"/><stop stop-opacity="1" stop-color="rgb(97.651672%, 84.434509%, 27.830505%)" offset="0.800781"/><stop stop-opacity="1" stop-color="rgb(97.85614%, 84.727478%, 27.897644%)" offset="0.804687"/><stop stop-opacity="1" stop-color="rgb(98.060608%, 85.020447%, 27.963257%)" offset="0.808594"/><stop stop-opacity="1" stop-color="rgb(98.266602%, 85.314941%, 28.030396%)" offset="0.8125"/><stop stop-opacity="1" stop-color="rgb(98.471069%, 85.60791%, 28.097534%)" offset="0.816406"/><stop stop-opacity="1" stop-color="rgb(98.675537%, 85.900879%, 28.164673%)" offset="0.820312"/><stop stop-opacity="1" stop-color="rgb(98.880005%, 86.193848%, 28.231812%)" offset="0.824219"/><stop stop-opacity="1" stop-color="rgb(99.084473%, 86.488342%, 28.29895%)" offset="0.828125"/><stop stop-opacity="1" stop-color="rgb(99.28894%, 86.781311%, 28.366089%)" offset="0.832031"/><stop stop-opacity="1" stop-color="rgb(99.493408%, 87.07428%, 28.433228%)" offset="0.835938"/><stop stop-opacity="1" stop-color="rgb(99.697876%, 87.367249%, 28.500366%)" offset="0.839844"/><stop stop-opacity="1" stop-color="rgb(99.902344%, 87.661743%, 28.567505%)" offset="0.84375"/><stop stop-opacity="1" stop-color="rgb(99.951172%, 87.730408%, 28.582764%)" offset="0.875"/><stop stop-opacity="1" stop-color="rgb(100%, 87.799072%, 28.599548%)" offset="1"/></linearGradient><clipPath id="332b249851"><path d="M 64 178 L 69 178 L 69 183 L 64 183 Z M 64 178 " clip-rule="nonzero"/></clipPath><clipPath id="1d3065abaf"><path d="M 64.613281 176.71875 L 70.324219 181.582031 L 66.921875 185.578125 L 61.210938 180.71875 Z M 64.613281 176.71875 " clip-rule="nonzero"/></clipPath><clipPath id="a62202d7ff"><path d="M 64.613281 176.71875 L 70.324219 181.582031 L 66.921875 185.578125 L 61.210938 180.71875 Z M 64.613281 176.71875 " clip-rule="nonzero"/></clipPath><clipPath id="2731fd96be"><path d="M 64.613281 176.71875 L 70.324219 181.582031 L 66.921875 185.578125 L 61.210938 180.71875 Z M 64.613281 176.71875 " clip-rule="nonzero"/></clipPath><clipPath id="27416beeb1"><path d="M 64 179 L 68 179 L 68 183 L 64 183 Z M 64 179 " clip-rule="nonzero"/></clipPath><clipPath id="29b7410b19"><path d="M 64.613281 176.71875 L 70.324219 181.582031 L 66.921875 185.578125 L 61.210938 180.71875 Z M 64.613281 176.71875 " clip-rule="nonzero"/></clipPath><clipPath id="c768e5602d"><path d="M 64.613281 176.71875 L 70.324219 181.582031 L 66.921875 185.578125 L 61.210938 180.71875 Z M 64.613281 176.71875 " clip-rule="nonzero"/></clipPath><clipPath id="fcd5fd8253"><path d="M 64.613281 176.71875 L 70.324219 181.582031 L 66.921875 185.578125 L 61.210938 180.71875 Z M 64.613281 176.71875 " clip-rule="nonzero"/></clipPath><clipPath id="ca90874866"><path d="M 65.53125 181.429688 C 64.660156 180.6875 64.230469 179.730469 64.472656 179.164062 C 64.367188 179.25 64.273438 179.34375 64.183594 179.449219 C 63.738281 179.972656 64.160156 181.070312 65.132812 181.898438 C 66.101562 182.722656 67.253906 182.964844 67.699219 182.441406 C 67.789062 182.335938 67.867188 182.226562 67.9375 182.109375 C 67.414062 182.441406 66.398438 182.167969 65.53125 181.429688 Z M 65.53125 181.429688 " clip-rule="nonzero"/></clipPath><linearGradient x1="256" gradientTransform="matrix(0.0136843, 0.0116452, -0.0121516, 0.0142794, 65.374675, 174.513406)" y1="399.940256" x2="256" gradientUnits="userSpaceOnUse" y2="100.308491" id="02f16fbcc1"><stop stop-opacity="1" stop-color="rgb(67.799377%, 17.999268%, 23.498535%)" offset="0"/><stop stop-opacity="1" stop-color="rgb(67.799377%, 17.999268%, 23.498535%)" offset="0.25"/><stop stop-opacity="1" stop-color="rgb(67.799377%, 17.999268%, 23.498535%)" offset="0.375"/><stop stop-opacity="1" stop-color="rgb(67.799377%, 17.999268%, 23.498535%)" offset="0.390625"/><stop stop-opacity="1" stop-color="rgb(68.02063%, 18.141174%, 23.545837%)" offset="0.394531"/><stop stop-opacity="1" stop-color="rgb(68.243408%, 18.283081%, 23.594666%)" offset="0.398437"/><stop stop-opacity="1" stop-color="rgb(68.486023%, 18.437195%, 23.646545%)" offset="0.402344"/><stop stop-opacity="1" stop-color="rgb(68.730164%, 18.592834%, 23.699951%)" offset="0.40625"/><stop stop-opacity="1" stop-color="rgb(68.972778%, 18.748474%, 23.751831%)" offset="0.410156"/><stop stop-opacity="1" stop-color="rgb(69.215393%, 18.904114%, 23.803711%)" offset="0.414062"/><stop stop-opacity="1" stop-color="rgb(69.458008%, 19.058228%, 23.855591%)" offset="0.417969"/><stop stop-opacity="1" stop-color="rgb(69.702148%, 19.213867%, 23.908997%)" offset="0.421875"/><stop stop-opacity="1" stop-color="rgb(69.944763%, 19.367981%, 23.960876%)" offset="0.425781"/><stop stop-opacity="1" stop-color="rgb(70.187378%, 19.523621%, 24.014282%)" offset="0.429687"/><stop stop-opacity="1" stop-color="rgb(70.429993%, 19.67926%, 24.066162%)" offset="0.433594"/><stop stop-opacity="1" stop-color="rgb(70.674133%, 19.8349%, 24.118042%)" offset="0.4375"/><stop stop-opacity="1" stop-color="rgb(70.916748%, 19.989014%, 24.169922%)" offset="0.441406"/><stop stop-opacity="1" stop-color="rgb(71.159363%, 20.144653%, 24.223328%)" offset="0.445312"/><stop stop-opacity="1" stop-color="rgb(71.401978%, 20.298767%, 24.275208%)" offset="0.449219"/><stop stop-opacity="1" stop-color="rgb(71.646118%, 20.454407%, 24.327087%)" offset="0.453125"/><stop stop-opacity="1" stop-color="rgb(71.888733%, 20.610046%, 24.378967%)" offset="0.457031"/><stop stop-opacity="1" stop-color="rgb(72.131348%, 20.765686%, 24.432373%)" offset="0.460937"/><stop stop-opacity="1" stop-color="rgb(72.373962%, 20.9198%, 24.484253%)" offset="0.464844"/><stop stop-opacity="1" stop-color="rgb(72.616577%, 21.075439%, 24.537659%)" offset="0.46875"/><stop stop-opacity="1" stop-color="rgb(72.859192%, 21.229553%, 24.589539%)" offset="0.472656"/><stop stop-opacity="1" stop-color="rgb(73.103333%, 21.385193%, 24.641418%)" offset="0.476562"/><stop stop-opacity="1" stop-color="rgb(73.345947%, 21.540833%, 24.693298%)" offset="0.480469"/><stop stop-opacity="1" stop-color="rgb(73.588562%, 21.696472%, 24.746704%)" offset="0.484375"/><stop stop-opacity="1" stop-color="rgb(73.831177%, 21.850586%, 24.798584%)" offset="0.488281"/><stop stop-opacity="1" stop-color="rgb(74.075317%, 22.006226%, 24.850464%)" offset="0.492187"/><stop stop-opacity="1" stop-color="rgb(74.317932%, 22.160339%, 24.902344%)" offset="0.496094"/><stop stop-opacity="1" stop-color="rgb(74.560547%, 22.315979%, 24.95575%)" offset="0.5"/><stop stop-opacity="1" stop-color="rgb(74.803162%, 22.470093%, 25.007629%)" offset="0.503906"/><stop stop-opacity="1" stop-color="rgb(75.047302%, 22.625732%, 25.059509%)" offset="0.507812"/><stop stop-opacity="1" stop-color="rgb(75.289917%, 22.781372%, 25.111389%)" offset="0.511719"/><stop stop-opacity="1" stop-color="rgb(75.532532%, 22.937012%, 25.164795%)" offset="0.515625"/><stop stop-opacity="1" stop-color="rgb(75.775146%, 23.091125%, 25.216675%)" offset="0.519531"/><stop stop-opacity="1" stop-color="rgb(76.017761%, 23.246765%, 25.270081%)" offset="0.523438"/><stop stop-opacity="1" stop-color="rgb(76.260376%, 23.400879%, 25.32196%)" offset="0.527344"/><stop stop-opacity="1" stop-color="rgb(76.504517%, 23.556519%, 25.37384%)" offset="0.53125"/><stop stop-opacity="1" stop-color="rgb(76.747131%, 23.712158%, 25.42572%)" offset="0.535156"/><stop stop-opacity="1" stop-color="rgb(76.989746%, 23.867798%, 25.479126%)" offset="0.539062"/><stop stop-opacity="1" stop-color="rgb(77.232361%, 24.021912%, 25.531006%)" offset="0.542969"/><stop stop-opacity="1" stop-color="rgb(77.476501%, 24.177551%, 25.582886%)" offset="0.546875"/><stop stop-opacity="1" stop-color="rgb(77.719116%, 24.331665%, 25.634766%)" offset="0.550781"/><stop stop-opacity="1" stop-color="rgb(77.961731%, 24.487305%, 25.688171%)" offset="0.554688"/><stop stop-opacity="1" stop-color="rgb(78.204346%, 24.642944%, 25.740051%)" offset="0.558594"/><stop stop-opacity="1" stop-color="rgb(78.448486%, 24.798584%, 25.793457%)" offset="0.5625"/><stop stop-opacity="1" stop-color="rgb(78.691101%, 24.952698%, 25.845337%)" offset="0.566406"/><stop stop-opacity="1" stop-color="rgb(78.933716%, 25.108337%, 25.897217%)" offset="0.570312"/><stop stop-opacity="1" stop-color="rgb(79.176331%, 25.262451%, 25.949097%)" offset="0.574219"/><stop stop-opacity="1" stop-color="rgb(79.420471%, 25.418091%, 26.002502%)" offset="0.578125"/><stop stop-opacity="1" stop-color="rgb(79.663086%, 25.57373%, 26.054382%)" offset="0.582031"/><stop stop-opacity="1" stop-color="rgb(79.905701%, 25.72937%, 26.106262%)" offset="0.585938"/><stop stop-opacity="1" stop-color="rgb(80.148315%, 25.883484%, 26.158142%)" offset="0.589844"/><stop stop-opacity="1" stop-color="rgb(80.39093%, 26.039124%, 26.211548%)" offset="0.59375"/><stop stop-opacity="1" stop-color="rgb(80.595398%, 26.168823%, 26.254272%)" offset="0.597656"/><stop stop-opacity="1" stop-color="rgb(80.799866%, 26.298523%, 26.298523%)" offset="0.601562"/><stop stop-opacity="1" stop-color="rgb(80.799866%, 26.298523%, 26.298523%)" offset="0.609375"/><stop stop-opacity="1" stop-color="rgb(80.799866%, 26.298523%, 26.298523%)" offset="0.625"/><stop stop-opacity="1" stop-color="rgb(80.799866%, 26.298523%, 26.298523%)" offset="0.75"/><stop stop-opacity="1" stop-color="rgb(80.799866%, 26.298523%, 26.298523%)" offset="1"/></linearGradient><clipPath id="fdd9f7778b"><path d="M 64 179 L 68 179 L 68 183 L 64 183 Z M 64 179 " clip-rule="nonzero"/></clipPath><clipPath id="90309b2530"><path d="M 64.613281 176.71875 L 70.324219 181.582031 L 66.921875 185.578125 L 61.210938 180.71875 Z M 64.613281 176.71875 " clip-rule="nonzero"/></clipPath><clipPath id="e4fa1789a8"><path d="M 64.613281 176.71875 L 70.324219 181.582031 L 66.921875 185.578125 L 61.210938 180.71875 Z M 64.613281 176.71875 " clip-rule="nonzero"/></clipPath><clipPath id="90f2c25bc8"><path d="M 64.613281 176.71875 L 70.324219 181.582031 L 66.921875 185.578125 L 61.210938 180.71875 Z M 64.613281 176.71875 " clip-rule="nonzero"/></clipPath><clipPath id="3868aa2400"><path d="M 62 179 L 69 179 L 69 185 L 62 185 Z M 62 179 " clip-rule="nonzero"/></clipPath><clipPath id="04c1335196"><path d="M 64.613281 176.71875 L 70.324219 181.582031 L 66.921875 185.578125 L 61.210938 180.71875 Z M 64.613281 176.71875 " clip-rule="nonzero"/></clipPath><clipPath id="a81365a5e3"><path d="M 64.613281 176.71875 L 70.324219 181.582031 L 66.921875 185.578125 L 61.210938 180.71875 Z M 64.613281 176.71875 " clip-rule="nonzero"/></clipPath><clipPath id="6cfb54c757"><path d="M 64.613281 176.71875 L 70.324219 181.582031 L 66.921875 185.578125 L 61.210938 180.71875 Z M 64.613281 176.71875 " clip-rule="nonzero"/></clipPath><clipPath id="7d87baaa42"><path d="M 67 179 L 68 179 L 68 180 L 67 180 Z M 67 179 " clip-rule="nonzero"/></clipPath><clipPath id="4b39f1e349"><path d="M 64.613281 176.71875 L 70.324219 181.582031 L 66.921875 185.578125 L 61.210938 180.71875 Z M 64.613281 176.71875 " clip-rule="nonzero"/></clipPath><clipPath id="c3a86d5d42"><path d="M 64.613281 176.71875 L 70.324219 181.582031 L 66.921875 185.578125 L 61.210938 180.71875 Z M 64.613281 176.71875 " clip-rule="nonzero"/></clipPath><clipPath id="c9360991e4"><path d="M 64.613281 176.71875 L 70.324219 181.582031 L 66.921875 185.578125 L 61.210938 180.71875 Z M 64.613281 176.71875 " clip-rule="nonzero"/></clipPath><clipPath id="15cad032e2"><path d="M 67 179 L 68 179 L 68 181 L 67 181 Z M 67 179 " clip-rule="nonzero"/></clipPath><clipPath id="be2fb79365"><path d="M 64.613281 176.71875 L 70.324219 181.582031 L 66.921875 185.578125 L 61.210938 180.71875 Z M 64.613281 176.71875 " clip-rule="nonzero"/></clipPath><clipPath id="d4c814509f"><path d="M 64.613281 176.71875 L 70.324219 181.582031 L 66.921875 185.578125 L 61.210938 180.71875 Z M 64.613281 176.71875 " clip-rule="nonzero"/></clipPath><clipPath id="e294897a17"><path d="M 64.613281 176.71875 L 70.324219 181.582031 L 66.921875 185.578125 L 61.210938 180.71875 Z M 64.613281 176.71875 " clip-rule="nonzero"/></clipPath><clipPath id="27d30c96dc"><path d="M 68 182 L 69 182 L 69 183 L 68 183 Z M 68 182 " clip-rule="nonzero"/></clipPath><clipPath id="c28026ae67"><path d="M 64.613281 176.71875 L 70.324219 181.582031 L 66.921875 185.578125 L 61.210938 180.71875 Z M 64.613281 176.71875 " clip-rule="nonzero"/></clipPath><clipPath id="3e7c2fe1ff"><path d="M 64.613281 176.71875 L 70.324219 181.582031 L 66.921875 185.578125 L 61.210938 180.71875 Z M 64.613281 176.71875 " clip-rule="nonzero"/></clipPath><clipPath id="11cb4836ac"><path d="M 64.613281 176.71875 L 70.324219 181.582031 L 66.921875 185.578125 L 61.210938 180.71875 Z M 64.613281 176.71875 " clip-rule="nonzero"/></clipPath><clipPath id="c120af03ff"><path d="M 65 179 L 67 179 L 67 181 L 65 181 Z M 65 179 " clip-rule="nonzero"/></clipPath><clipPath id="51d810cb38"><path d="M 64.613281 176.71875 L 70.324219 181.582031 L 66.921875 185.578125 L 61.210938 180.71875 Z M 64.613281 176.71875 " clip-rule="nonzero"/></clipPath><clipPath id="2b54787f50"><path d="M 64.613281 176.71875 L 70.324219 181.582031 L 66.921875 185.578125 L 61.210938 180.71875 Z M 64.613281 176.71875 " clip-rule="nonzero"/></clipPath><clipPath id="b372477153"><path d="M 64.613281 176.71875 L 70.324219 181.582031 L 66.921875 185.578125 L 61.210938 180.71875 Z M 64.613281 176.71875 " clip-rule="nonzero"/></clipPath><clipPath id="ffc2782d85"><path d="M 66 183 L 68 183 L 68 184 L 66 184 Z M 66 183 " clip-rule="nonzero"/></clipPath><clipPath id="48b32f482e"><path d="M 64.613281 176.71875 L 70.324219 181.582031 L 66.921875 185.578125 L 61.210938 180.71875 Z M 64.613281 176.71875 " clip-rule="nonzero"/></clipPath><clipPath id="819e37d17b"><path d="M 64.613281 176.71875 L 70.324219 181.582031 L 66.921875 185.578125 L 61.210938 180.71875 Z M 64.613281 176.71875 " clip-rule="nonzero"/></clipPath><clipPath id="e8567a4b4e"><path d="M 64.613281 176.71875 L 70.324219 181.582031 L 66.921875 185.578125 L 61.210938 180.71875 Z M 64.613281 176.71875 " clip-rule="nonzero"/></clipPath><clipPath id="6d3b5a5cb7"><path d="M 62 179 L 64 179 L 64 181 L 62 181 Z M 62 179 " clip-rule="nonzero"/></clipPath><clipPath id="e60162a266"><path d="M 64.613281 176.71875 L 70.324219 181.582031 L 66.921875 185.578125 L 61.210938 180.71875 Z M 64.613281 176.71875 " clip-rule="nonzero"/></clipPath><clipPath id="459cbd99bc"><path d="M 64.613281 176.71875 L 70.324219 181.582031 L 66.921875 185.578125 L 61.210938 180.71875 Z M 64.613281 176.71875 " clip-rule="nonzero"/></clipPath><clipPath id="b86c12f6d3"><path d="M 64.613281 176.71875 L 70.324219 181.582031 L 66.921875 185.578125 L 61.210938 180.71875 Z M 64.613281 176.71875 " clip-rule="nonzero"/></clipPath></defs><g fill="#000000" fill-opacity="1"><g transform="translate(20.532926, 270.293392)"><g><path d="M 0.265625 0 L 0.265625 -2.640625 L 7.90625 -2.640625 C 12.65625 -2.640625 16.082031 -3.957031 18.1875 -6.59375 C 20.300781 -9.226562 22.5 -14.851562 24.78125 -23.46875 L 68.015625 -188.25 L 85.421875 -188.25 L 133.671875 -15.03125 C 135.078125 -9.925781 136.703125 -6.582031 138.546875 -5 C 140.390625 -3.425781 143.421875 -2.640625 147.640625 -2.640625 L 149.5 -2.640625 L 149.5 0 L 90.96875 0 L 90.96875 -2.640625 L 98.875 -2.640625 C 103.789062 -2.640625 106.992188 -3.253906 108.484375 -4.484375 C 109.984375 -5.710938 110.734375 -7.46875 110.734375 -9.75 C 110.734375 -11.863281 110.289062 -14.367188 109.40625 -17.265625 C 108.53125 -20.171875 107.742188 -23.117188 107.046875 -26.109375 L 96.234375 -68.546875 L 39.546875 -68.546875 L 29.53125 -30.578125 C 28.476562 -26.710938 27.507812 -22.929688 26.625 -19.234375 C 25.75 -15.546875 25.3125 -12.5625 25.3125 -10.28125 C 25.3125 -7.46875 26.144531 -5.488281 27.8125 -4.34375 C 29.488281 -3.207031 32.519531 -2.640625 36.90625 -2.640625 L 48.25 -2.640625 L 48.25 0 Z M 40.34375 -71.1875 L 95.4375 -71.1875 L 78.046875 -138.6875 C 75.929688 -147.300781 74.210938 -154.195312 72.890625 -159.375 C 71.578125 -164.5625 70.523438 -168.648438 69.734375 -171.640625 C 68.941406 -174.628906 68.367188 -177.175781 68.015625 -179.28125 C 66.960938 -174.71875 66.128906 -170.941406 65.515625 -167.953125 C 64.898438 -164.960938 64.195312 -162.015625 63.40625 -159.109375 C 62.613281 -156.210938 61.601562 -152.476562 60.375 -147.90625 Z M 40.34375 -71.1875 "/></g></g></g><g fill="#000000" fill-opacity="1"><g transform="translate(204.565706, 270.293392)"><g><path d="M 7.640625 0 L 7.640625 -2.640625 L 15.03125 -2.640625 C 20.125 -2.640625 23.414062 -3.867188 24.90625 -6.328125 C 26.40625 -8.785156 27.15625 -14.054688 27.15625 -22.140625 L 27.15625 -165.84375 C 27.15625 -174.101562 26.363281 -179.460938 24.78125 -181.921875 C 23.195312 -184.378906 19.679688 -185.609375 14.234375 -185.609375 L 7.640625 -185.609375 L 7.640625 -188.25 L 69.609375 -188.25 L 69.609375 -185.609375 L 62.21875 -185.609375 C 57.300781 -185.609375 54.140625 -184.421875 52.734375 -182.046875 C 51.328125 -179.679688 50.625 -174.453125 50.625 -166.359375 L 50.625 -99.921875 L 116.265625 -99.921875 L 116.265625 -166.109375 C 116.265625 -174.191406 115.5625 -179.460938 114.15625 -181.921875 C 112.75 -184.378906 109.410156 -185.609375 104.140625 -185.609375 L 97.296875 -185.609375 L 97.296875 -188.25 L 159.515625 -188.25 L 159.515625 -185.609375 L 151.859375 -185.609375 C 146.765625 -185.609375 143.46875 -184.378906 141.96875 -181.921875 C 140.476562 -179.460938 139.734375 -174.191406 139.734375 -166.109375 L 139.734375 -22.140625 C 139.734375 -14.054688 140.476562 -8.785156 141.96875 -6.328125 C 143.46875 -3.867188 146.765625 -2.640625 151.859375 -2.640625 L 159.515625 -2.640625 L 159.515625 0 L 97.296875 0 L 97.296875 -2.640625 L 104.140625 -2.640625 C 109.410156 -2.640625 112.75 -3.867188 114.15625 -6.328125 C 115.5625 -8.785156 116.265625 -14.234375 116.265625 -22.671875 L 116.265625 -97.296875 L 50.625 -97.296875 L 50.625 -22.140625 C 50.625 -14.054688 51.328125 -8.785156 52.734375 -6.328125 C 54.140625 -3.867188 57.300781 -2.640625 62.21875 -2.640625 L 69.609375 -2.640625 L 69.609375 0 Z M 7.640625 0 "/></g></g></g><g clip-path="url(#469685fc1e)"><path fill="#e4dcce" d="M 4.703125 171.523438 L 372.210938 171.523438 L 372.210938 205.972656 L 4.703125 205.972656 Z M 4.703125 171.523438 " fill-opacity="1" fill-rule="nonzero"/></g><g fill="#000000" fill-opacity="1"><g transform="translate(56.346582, 194.418545)"><g><path d="M -0.046875 0 L -0.046875 -0.21875 L 0.5 -0.21875 C 0.96875 -0.21875 1.300781 -0.304688 1.5 -0.484375 C 1.695312 -0.660156 1.894531 -1.03125 2.09375 -1.59375 L 6.859375 -15.3125 L 7.546875 -15.3125 L 12.71875 -1.3125 C 12.875 -0.863281 13.03125 -0.566406 13.1875 -0.421875 C 13.351562 -0.285156 13.628906 -0.21875 14.015625 -0.21875 L 14.359375 -0.21875 L 14.359375 0 L 9.125 0 L 9.125 -0.21875 L 9.78125 -0.21875 C 10.320312 -0.21875 10.679688 -0.273438 10.859375 -0.390625 C 11.046875 -0.503906 11.140625 -0.695312 11.140625 -0.96875 C 11.140625 -1.15625 11.097656 -1.394531 11.015625 -1.6875 C 10.929688 -1.988281 10.851562 -2.238281 10.78125 -2.4375 L 9.640625 -5.546875 L 3.734375 -5.546875 L 2.65625 -2.53125 C 2.601562 -2.332031 2.53125 -2.082031 2.4375 -1.78125 C 2.34375 -1.476562 2.296875 -1.234375 2.296875 -1.046875 C 2.296875 -0.742188 2.410156 -0.53125 2.640625 -0.40625 C 2.878906 -0.28125 3.335938 -0.21875 4.015625 -0.21875 L 4.828125 -0.21875 L 4.828125 0 Z M 3.796875 -5.765625 L 9.578125 -5.765625 L 7.9375 -10.359375 C 7.707031 -11.015625 7.472656 -11.679688 7.234375 -12.359375 C 6.992188 -13.035156 6.796875 -13.632812 6.640625 -14.15625 C 6.503906 -13.664062 6.320312 -13.101562 6.09375 -12.46875 C 5.875 -11.84375 5.664062 -11.234375 5.46875 -10.640625 Z M 3.796875 -5.765625 "/></g></g></g><g fill="#000000" fill-opacity="1"><g transform="translate(78.911243, 194.418545)"><g><path d="M 0.9375 0 L 0.9375 -0.21875 L 1.5 -0.21875 C 2.0625 -0.21875 2.453125 -0.332031 2.671875 -0.5625 C 2.890625 -0.800781 3 -1.25 3 -1.90625 L 3 -13.4375 C 3 -14.070312 2.890625 -14.503906 2.671875 -14.734375 C 2.453125 -14.972656 2.0625 -15.09375 1.5 -15.09375 L 0.9375 -15.09375 L 0.9375 -15.3125 L 6.40625 -15.3125 C 8.132812 -15.3125 9.421875 -15.015625 10.265625 -14.421875 C 11.109375 -13.828125 11.53125 -12.898438 11.53125 -11.640625 C 11.53125 -10.535156 11.21875 -9.707031 10.59375 -9.15625 C 9.976562 -8.613281 9.101562 -8.269531 7.96875 -8.125 L 7.96875 -8.078125 C 9.457031 -7.992188 10.53125 -7.613281 11.1875 -6.9375 C 11.84375 -6.257812 12.171875 -5.347656 12.171875 -4.203125 C 12.171875 -2.773438 11.742188 -1.71875 10.890625 -1.03125 C 10.046875 -0.34375 8.765625 0 7.046875 0 Z M 4.453125 -8.140625 L 6.34375 -8.140625 C 7.75 -8.140625 8.710938 -8.414062 9.234375 -8.96875 C 9.753906 -9.519531 10.015625 -10.382812 10.015625 -11.5625 C 10.015625 -12.832031 9.726562 -13.738281 9.15625 -14.28125 C 8.59375 -14.820312 7.640625 -15.09375 6.296875 -15.09375 L 4.453125 -15.09375 Z M 4.453125 -0.21875 L 6.953125 -0.21875 C 8.285156 -0.21875 9.234375 -0.53125 9.796875 -1.15625 C 10.367188 -1.78125 10.65625 -2.78125 10.65625 -4.15625 C 10.65625 -5.488281 10.382812 -6.453125 9.84375 -7.046875 C 9.3125 -7.640625 8.375 -7.9375 7.03125 -7.9375 L 4.453125 -7.9375 Z M 4.453125 -0.21875 "/></g></g></g><g fill="#000000" fill-opacity="1"><g transform="translate(100.640315, 194.418545)"><g><path d="M 0.921875 0 L 0.921875 -0.21875 L 1.5 -0.21875 C 2.0625 -0.21875 2.453125 -0.332031 2.671875 -0.5625 C 2.890625 -0.800781 3 -1.25 3 -1.90625 L 3 -13.4375 C 3 -14.070312 2.890625 -14.503906 2.671875 -14.734375 C 2.453125 -14.972656 2.0625 -15.09375 1.5 -15.09375 L 0.921875 -15.09375 L 0.921875 -15.3125 L 6.515625 -15.3125 L 6.515625 -15.09375 L 5.953125 -15.09375 C 5.398438 -15.09375 5.007812 -14.972656 4.78125 -14.734375 C 4.5625 -14.503906 4.453125 -14.054688 4.453125 -13.390625 L 4.453125 -1.90625 C 4.453125 -1.25 4.5625 -0.800781 4.78125 -0.5625 C 5.007812 -0.332031 5.398438 -0.21875 5.953125 -0.21875 L 6.515625 -0.21875 L 6.515625 0 Z M 0.921875 0 "/></g></g></g><g fill="#000000" fill-opacity="1"><g transform="translate(116.134646, 194.418545)"><g><path d="M 0.921875 0 L 0.921875 -0.21875 L 1.5 -0.21875 C 2.0625 -0.21875 2.453125 -0.332031 2.671875 -0.5625 C 2.890625 -0.800781 3 -1.25 3 -1.90625 L 3 -13.4375 C 3 -14.070312 2.890625 -14.503906 2.671875 -14.734375 C 2.453125 -14.972656 2.0625 -15.09375 1.5 -15.09375 L 0.921875 -15.09375 L 0.921875 -15.3125 L 11.109375 -15.3125 L 11.234375 -11.65625 L 11.015625 -11.65625 L 10.953125 -12.890625 C 10.910156 -13.734375 10.738281 -14.3125 10.4375 -14.625 C 10.132812 -14.9375 9.5625 -15.09375 8.71875 -15.09375 L 4.453125 -15.09375 L 4.453125 -8.125 L 9.78125 -8.125 L 9.78125 -7.90625 L 4.453125 -7.90625 L 4.453125 -0.21875 L 9.34375 -0.21875 C 10.226562 -0.21875 10.828125 -0.375 11.140625 -0.6875 C 11.460938 -1 11.644531 -1.578125 11.6875 -2.421875 L 11.75 -3.640625 L 11.96875 -3.640625 L 11.8125 0 Z M 0.921875 0 "/></g></g></g><g fill="#000000" fill-opacity="1"><g transform="translate(137.156699, 194.418545)"><g><path d="M 0.921875 0 L 0.921875 -0.21875 L 1.5 -0.21875 C 2.0625 -0.21875 2.453125 -0.332031 2.671875 -0.5625 C 2.890625 -0.800781 3 -1.25 3 -1.90625 L 3 -13.4375 C 3 -14.070312 2.890625 -14.503906 2.671875 -14.734375 C 2.453125 -14.972656 2.0625 -15.09375 1.5 -15.09375 L 0.921875 -15.09375 L 0.921875 -15.3125 L 6.515625 -15.3125 L 6.515625 -15.09375 L 5.953125 -15.09375 C 5.398438 -15.09375 5.007812 -14.972656 4.78125 -14.734375 C 4.5625 -14.503906 4.453125 -14.054688 4.453125 -13.390625 L 4.453125 -0.21875 L 9.34375 -0.21875 C 9.914062 -0.21875 10.363281 -0.296875 10.6875 -0.453125 C 11.019531 -0.609375 11.257812 -0.878906 11.40625 -1.265625 C 11.550781 -1.660156 11.644531 -2.203125 11.6875 -2.890625 L 11.75 -4.5 L 11.96875 -4.5 L 11.8125 0 Z M 0.921875 0 "/></g></g></g><g fill="#000000" fill-opacity="1"><g transform="translate(158.174302, 194.418545)"><g/></g></g><g fill="#000000" fill-opacity="1"><g transform="translate(171.033338, 194.418545)"><g/></g></g><g fill="#000000" fill-opacity="1"><g transform="translate(183.892373, 194.418545)"><g/></g></g><g fill="#000000" fill-opacity="1"><g transform="translate(196.751408, 194.418545)"><g/></g></g><g fill="#000000" fill-opacity="1"><g transform="translate(209.610444, 194.418545)"><g/></g></g><g fill="#000000" fill-opacity="1"><g transform="translate(222.469481, 194.418545)"><g/></g></g><g fill="#000000" fill-opacity="1"><g transform="translate(235.339869, 194.418545)"><g><path d="M 0.9375 0 L 0.9375 -0.21875 L 1.515625 -0.21875 C 2.078125 -0.21875 2.46875 -0.332031 2.6875 -0.5625 C 2.90625 -0.800781 3.015625 -1.25 3.015625 -1.90625 L 3.015625 -13.4375 C 3.015625 -14.070312 2.90625 -14.503906 2.6875 -14.734375 C 2.46875 -14.972656 2.078125 -15.09375 1.515625 -15.09375 L 0.9375 -15.09375 L 0.9375 -15.3125 L 6.5625 -15.3125 L 6.5625 -15.09375 L 5.984375 -15.09375 C 5.410156 -15.09375 5.015625 -14.972656 4.796875 -14.734375 C 4.585938 -14.503906 4.484375 -14.054688 4.484375 -13.390625 L 4.484375 -8.109375 L 12.21875 -8.109375 L 12.21875 -13.390625 C 12.21875 -14.054688 12.109375 -14.503906 11.890625 -14.734375 C 11.679688 -14.972656 11.289062 -15.09375 10.71875 -15.09375 L 10.140625 -15.09375 L 10.140625 -15.3125 L 15.75 -15.3125 L 15.75 -15.09375 L 15.171875 -15.09375 C 14.617188 -15.09375 14.226562 -14.972656 14 -14.734375 C 13.78125 -14.503906 13.671875 -14.070312 13.671875 -13.4375 L 13.671875 -1.90625 C 13.671875 -1.25 13.78125 -0.800781 14 -0.5625 C 14.226562 -0.332031 14.617188 -0.21875 15.171875 -0.21875 L 15.75 -0.21875 L 15.75 0 L 10.140625 0 L 10.140625 -0.21875 L 10.71875 -0.21875 C 11.289062 -0.21875 11.679688 -0.332031 11.890625 -0.5625 C 12.109375 -0.800781 12.21875 -1.25 12.21875 -1.90625 L 12.21875 -7.890625 L 4.484375 -7.890625 L 4.484375 -1.90625 C 4.484375 -1.25 4.585938 -0.800781 4.796875 -0.5625 C 5.015625 -0.332031 5.410156 -0.21875 5.984375 -0.21875 L 6.5625 -0.21875 L 6.5625 0 Z M 0.9375 0 "/></g></g></g><g fill="#000000" fill-opacity="1"><g transform="translate(260.047058, 194.418545)"><g><path d="M 0.921875 0 L 0.921875 -0.21875 L 1.5 -0.21875 C 2.0625 -0.21875 2.453125 -0.332031 2.671875 -0.5625 C 2.890625 -0.800781 3 -1.25 3 -1.90625 L 3 -13.4375 C 3 -14.070312 2.890625 -14.503906 2.671875 -14.734375 C 2.453125 -14.972656 2.0625 -15.09375 1.5 -15.09375 L 0.921875 -15.09375 L 0.921875 -15.3125 L 11.109375 -15.3125 L 11.234375 -11.65625 L 11.015625 -11.65625 L 10.953125 -12.890625 C 10.910156 -13.734375 10.738281 -14.3125 10.4375 -14.625 C 10.132812 -14.9375 9.5625 -15.09375 8.71875 -15.09375 L 4.453125 -15.09375 L 4.453125 -8.125 L 9.78125 -8.125 L 9.78125 -7.90625 L 4.453125 -7.90625 L 4.453125 -0.21875 L 9.34375 -0.21875 C 10.226562 -0.21875 10.828125 -0.375 11.140625 -0.6875 C 11.460938 -1 11.644531 -1.578125 11.6875 -2.421875 L 11.75 -3.640625 L 11.96875 -3.640625 L 11.8125 0 Z M 0.921875 0 "/></g></g></g><g fill="#000000" fill-opacity="1"><g transform="translate(281.069111, 194.418545)"><g><path d="M 0.921875 0 L 0.921875 -0.21875 L 1.5 -0.21875 C 2.0625 -0.21875 2.453125 -0.332031 2.671875 -0.5625 C 2.890625 -0.800781 3 -1.25 3 -1.90625 L 3 -13.4375 C 3 -14.070312 2.890625 -14.503906 2.671875 -14.734375 C 2.453125 -14.972656 2.0625 -15.09375 1.5 -15.09375 L 0.921875 -15.09375 L 0.921875 -15.3125 L 6.515625 -15.3125 L 6.515625 -15.09375 L 5.953125 -15.09375 C 5.398438 -15.09375 5.007812 -14.972656 4.78125 -14.734375 C 4.5625 -14.503906 4.453125 -14.054688 4.453125 -13.390625 L 4.453125 -0.21875 L 9.34375 -0.21875 C 9.914062 -0.21875 10.363281 -0.296875 10.6875 -0.453125 C 11.019531 -0.609375 11.257812 -0.878906 11.40625 -1.265625 C 11.550781 -1.660156 11.644531 -2.203125 11.6875 -2.890625 L 11.75 -4.5 L 11.96875 -4.5 L 11.8125 0 Z M 0.921875 0 "/></g></g></g><g fill="#000000" fill-opacity="1"><g transform="translate(302.069732, 194.418545)"><g><path d="M 0.921875 0 L 0.921875 -0.21875 L 1.5 -0.21875 C 2.0625 -0.21875 2.453125 -0.332031 2.671875 -0.5625 C 2.890625 -0.800781 3 -1.25 3 -1.90625 L 3 -13.4375 C 3 -14.070312 2.890625 -14.503906 2.671875 -14.734375 C 2.453125 -14.972656 2.0625 -15.09375 1.5 -15.09375 L 0.921875 -15.09375 L 0.921875 -15.3125 L 11.109375 -15.3125 L 11.234375 -11.65625 L 11.015625 -11.65625 L 10.953125 -12.890625 C 10.910156 -13.734375 10.738281 -14.3125 10.4375 -14.625 C 10.132812 -14.9375 9.5625 -15.09375 8.71875 -15.09375 L 4.453125 -15.09375 L 4.453125 -8.125 L 9.78125 -8.125 L 9.78125 -7.90625 L 4.453125 -7.90625 L 4.453125 -0.21875 L 9.34375 -0.21875 C 10.226562 -0.21875 10.828125 -0.375 11.140625 -0.6875 C 11.460938 -1 11.644531 -1.578125 11.6875 -2.421875 L 11.75 -3.640625 L 11.96875 -3.640625 L 11.8125 0 Z M 0.921875 0 "/></g></g></g><g fill="#000000" fill-opacity="1"><g transform="translate(323.091785, 194.418545)"><g><path d="M 0.921875 0 L 0.921875 -0.21875 L 1.6875 -0.21875 C 2.25 -0.21875 2.640625 -0.332031 2.859375 -0.5625 C 3.078125 -0.800781 3.1875 -1.25 3.1875 -1.90625 L 3.1875 -13.4375 C 3.1875 -14.070312 3.078125 -14.503906 2.859375 -14.734375 C 2.640625 -14.972656 2.25 -15.09375 1.6875 -15.09375 L 0.921875 -15.09375 L 0.921875 -15.3125 L 4.25 -15.3125 L 12.84375 -2.203125 L 12.84375 -13.390625 C 12.84375 -14.054688 12.734375 -14.503906 12.515625 -14.734375 C 12.304688 -14.972656 11.914062 -15.09375 11.34375 -15.09375 L 10.609375 -15.09375 L 10.609375 -15.3125 L 15.3125 -15.3125 L 15.3125 -15.09375 L 14.578125 -15.09375 C 14.003906 -15.09375 13.609375 -14.972656 13.390625 -14.734375 C 13.171875 -14.503906 13.0625 -14.054688 13.0625 -13.390625 L 13.0625 0 L 12.625 0 L 3.40625 -13.984375 L 3.40625 -1.90625 C 3.40625 -1.25 3.507812 -0.800781 3.71875 -0.5625 C 3.9375 -0.332031 4.332031 -0.21875 4.90625 -0.21875 L 5.640625 -0.21875 L 5.640625 0 Z M 0.921875 0 "/></g></g></g><g fill="#000000" fill-opacity="1"><g transform="translate(134.368904, 315.781472)"><g><path d="M 3.875 0.15625 C 2.957031 0.15625 2.257812 -0.015625 1.78125 -0.359375 C 1.3125 -0.710938 1.078125 -1.101562 1.078125 -1.53125 C 1.078125 -1.769531 1.144531 -1.953125 1.28125 -2.078125 C 1.414062 -2.203125 1.578125 -2.265625 1.765625 -2.265625 C 1.765625 -1.515625 1.929688 -0.945312 2.265625 -0.5625 C 2.609375 -0.1875 3.15625 0 3.90625 0 C 4.632812 0 5.210938 -0.234375 5.640625 -0.703125 C 6.078125 -1.179688 6.296875 -1.875 6.296875 -2.78125 C 6.296875 -3.769531 6.082031 -4.46875 5.65625 -4.875 C 5.226562 -5.289062 4.550781 -5.5 3.625 -5.5 L 3.109375 -5.5 L 3.109375 -5.671875 L 3.609375 -5.671875 C 4.335938 -5.671875 4.90625 -5.890625 5.3125 -6.328125 C 5.726562 -6.765625 5.9375 -7.425781 5.9375 -8.3125 C 5.9375 -9.09375 5.78125 -9.671875 5.46875 -10.046875 C 5.15625 -10.421875 4.695312 -10.609375 4.09375 -10.609375 C 3.425781 -10.609375 2.941406 -10.398438 2.640625 -9.984375 C 2.335938 -9.578125 2.1875 -8.945312 2.1875 -8.09375 C 1.9375 -8.09375 1.726562 -8.15625 1.5625 -8.28125 C 1.394531 -8.414062 1.3125 -8.632812 1.3125 -8.9375 C 1.3125 -9.25 1.414062 -9.539062 1.625 -9.8125 C 1.832031 -10.09375 2.140625 -10.320312 2.546875 -10.5 C 2.953125 -10.675781 3.457031 -10.765625 4.0625 -10.765625 C 4.96875 -10.765625 5.675781 -10.550781 6.1875 -10.125 C 6.707031 -9.707031 6.96875 -9.09375 6.96875 -8.28125 C 6.96875 -7.507812 6.71875 -6.894531 6.21875 -6.4375 C 5.71875 -5.988281 5.085938 -5.710938 4.328125 -5.609375 C 4.898438 -5.578125 5.410156 -5.46875 5.859375 -5.28125 C 6.316406 -5.09375 6.675781 -4.800781 6.9375 -4.40625 C 7.207031 -4.007812 7.34375 -3.5 7.34375 -2.875 C 7.34375 -2.144531 7.175781 -1.554688 6.84375 -1.109375 C 6.507812 -0.671875 6.078125 -0.347656 5.546875 -0.140625 C 5.015625 0.0546875 4.457031 0.15625 3.875 0.15625 Z M 3.875 0.15625 "/></g></g></g><g fill="#000000" fill-opacity="1"><g transform="translate(148.245067, 315.781472)"><g><path d="M 1.671875 0 L 1.671875 -0.15625 L 2.71875 -0.15625 C 3.101562 -0.15625 3.375 -0.234375 3.53125 -0.390625 C 3.6875 -0.554688 3.765625 -0.867188 3.765625 -1.328125 L 3.765625 -9.9375 C 3.390625 -9.46875 3.085938 -9.101562 2.859375 -8.84375 C 2.628906 -8.582031 2.425781 -8.40625 2.25 -8.3125 C 2.082031 -8.21875 1.921875 -8.171875 1.765625 -8.171875 C 1.566406 -8.171875 1.421875 -8.222656 1.328125 -8.328125 C 1.234375 -8.441406 1.1875 -8.582031 1.1875 -8.75 C 1.738281 -8.78125 2.191406 -8.890625 2.546875 -9.078125 C 2.898438 -9.265625 3.234375 -9.546875 3.546875 -9.921875 L 4.203125 -10.671875 L 4.765625 -10.671875 L 4.765625 -1.328125 C 4.765625 -0.867188 4.835938 -0.554688 4.984375 -0.390625 C 5.140625 -0.234375 5.414062 -0.15625 5.8125 -0.15625 L 6.671875 -0.15625 L 6.671875 0 Z M 1.671875 0 "/></g></g></g><g fill="#000000" fill-opacity="1"><g transform="translate(162.121231, 315.781472)"><g><path d="M 1.609375 0.09375 C 1.234375 0.09375 1.046875 -0.179688 1.046875 -0.734375 C 1.046875 -1.273438 1.234375 -1.546875 1.609375 -1.546875 C 1.992188 -1.546875 2.1875 -1.273438 2.1875 -0.734375 C 2.1875 -0.179688 1.992188 0.09375 1.609375 0.09375 Z M 1.609375 0.09375 "/></g></g></g><g fill="#000000" fill-opacity="1"><g transform="translate(171.035818, 315.781472)"><g><path d="M 4.15625 0.15625 C 2.96875 0.15625 2.101562 -0.316406 1.5625 -1.265625 C 1.03125 -2.210938 0.765625 -3.566406 0.765625 -5.328125 C 0.765625 -7.054688 1.03125 -8.394531 1.5625 -9.34375 C 2.101562 -10.289062 2.972656 -10.765625 4.171875 -10.765625 C 5.328125 -10.765625 6.175781 -10.289062 6.71875 -9.34375 C 7.269531 -8.40625 7.546875 -7.0625 7.546875 -5.3125 C 7.546875 -3.59375 7.269531 -2.25 6.71875 -1.28125 C 6.164062 -0.320312 5.3125 0.15625 4.15625 0.15625 Z M 4.15625 0 C 4.71875 0 5.171875 -0.175781 5.515625 -0.53125 C 5.859375 -0.894531 6.109375 -1.46875 6.265625 -2.25 C 6.429688 -3.03125 6.515625 -4.050781 6.515625 -5.3125 C 6.515625 -6.5625 6.4375 -7.578125 6.28125 -8.359375 C 6.132812 -9.140625 5.890625 -9.707031 5.546875 -10.0625 C 5.210938 -10.425781 4.753906 -10.609375 4.171875 -10.609375 C 3.578125 -10.609375 3.109375 -10.425781 2.765625 -10.0625 C 2.421875 -9.695312 2.171875 -9.125 2.015625 -8.34375 C 1.867188 -7.5625 1.796875 -6.550781 1.796875 -5.3125 C 1.796875 -4.039062 1.875 -3.015625 2.03125 -2.234375 C 2.195312 -1.453125 2.453125 -0.882812 2.796875 -0.53125 C 3.140625 -0.175781 3.59375 0 4.15625 0 Z M 4.15625 0 "/></g></g></g><g fill="#000000" fill-opacity="1"><g transform="translate(184.911981, 315.781472)"><g><path d="M 4.125 0.15625 C 3.0625 0.15625 2.253906 -0.09375 1.703125 -0.59375 C 1.148438 -1.101562 0.875 -1.765625 0.875 -2.578125 C 0.875 -3.242188 1.082031 -3.8125 1.5 -4.28125 C 1.914062 -4.75 2.578125 -5.117188 3.484375 -5.390625 C 2.679688 -5.753906 2.101562 -6.15625 1.75 -6.59375 C 1.40625 -7.03125 1.234375 -7.554688 1.234375 -8.171875 C 1.234375 -8.660156 1.335938 -9.097656 1.546875 -9.484375 C 1.765625 -9.878906 2.09375 -10.191406 2.53125 -10.421875 C 2.96875 -10.648438 3.515625 -10.765625 4.171875 -10.765625 C 5.128906 -10.765625 5.851562 -10.523438 6.34375 -10.046875 C 6.84375 -9.566406 7.09375 -8.976562 7.09375 -8.28125 C 7.09375 -7.644531 6.910156 -7.117188 6.546875 -6.703125 C 6.191406 -6.285156 5.617188 -5.953125 4.828125 -5.703125 C 5.785156 -5.265625 6.46875 -4.8125 6.875 -4.34375 C 7.28125 -3.875 7.484375 -3.285156 7.484375 -2.578125 C 7.484375 -1.691406 7.171875 -1.015625 6.546875 -0.546875 C 5.929688 -0.078125 5.125 0.15625 4.125 0.15625 Z M 4.609375 -5.8125 C 5.210938 -6.082031 5.628906 -6.421875 5.859375 -6.828125 C 6.097656 -7.234375 6.21875 -7.710938 6.21875 -8.265625 C 6.21875 -9.015625 6.054688 -9.59375 5.734375 -10 C 5.410156 -10.40625 4.890625 -10.609375 4.171875 -10.609375 C 3.515625 -10.609375 3.007812 -10.425781 2.65625 -10.0625 C 2.3125 -9.707031 2.140625 -9.179688 2.140625 -8.484375 C 2.140625 -8.015625 2.21875 -7.628906 2.375 -7.328125 C 2.539062 -7.035156 2.804688 -6.773438 3.171875 -6.546875 C 3.535156 -6.328125 4.015625 -6.082031 4.609375 -5.8125 Z M 4.171875 0 C 4.953125 0 5.550781 -0.195312 5.96875 -0.59375 C 6.382812 -1 6.59375 -1.582031 6.59375 -2.34375 C 6.59375 -2.800781 6.503906 -3.1875 6.328125 -3.5 C 6.160156 -3.820312 5.863281 -4.117188 5.4375 -4.390625 C 5.007812 -4.671875 4.421875 -4.976562 3.671875 -5.3125 C 3.003906 -5.039062 2.523438 -4.6875 2.234375 -4.25 C 1.953125 -3.8125 1.8125 -3.265625 1.8125 -2.609375 C 1.8125 -1.703125 2.007812 -1.039062 2.40625 -0.625 C 2.8125 -0.207031 3.398438 0 4.171875 0 Z M 4.171875 0 "/></g></g></g><g fill="#000000" fill-opacity="1"><g transform="translate(198.788145, 315.781472)"><g><path d="M 1.609375 0.09375 C 1.234375 0.09375 1.046875 -0.179688 1.046875 -0.734375 C 1.046875 -1.273438 1.234375 -1.546875 1.609375 -1.546875 C 1.992188 -1.546875 2.1875 -1.273438 2.1875 -0.734375 C 2.1875 -0.179688 1.992188 0.09375 1.609375 0.09375 Z M 1.609375 0.09375 "/></g></g></g><g fill="#000000" fill-opacity="1"><g transform="translate(207.702732, 315.781472)"><g><path d="M 0.890625 0 L 0.890625 -0.75 L 3.21875 -3.265625 C 3.757812 -3.835938 4.195312 -4.34375 4.53125 -4.78125 C 4.875 -5.21875 5.144531 -5.609375 5.34375 -5.953125 C 5.539062 -6.304688 5.679688 -6.648438 5.765625 -6.984375 C 5.847656 -7.316406 5.890625 -7.675781 5.890625 -8.0625 C 5.890625 -8.851562 5.738281 -9.472656 5.4375 -9.921875 C 5.144531 -10.378906 4.644531 -10.609375 3.9375 -10.609375 C 3.28125 -10.609375 2.796875 -10.410156 2.484375 -10.015625 C 2.171875 -9.628906 2.019531 -8.988281 2.03125 -8.09375 C 1.78125 -8.09375 1.570312 -8.15625 1.40625 -8.28125 C 1.238281 -8.40625 1.15625 -8.617188 1.15625 -8.921875 C 1.15625 -9.222656 1.257812 -9.515625 1.46875 -9.796875 C 1.6875 -10.078125 2 -10.304688 2.40625 -10.484375 C 2.820312 -10.671875 3.332031 -10.765625 3.9375 -10.765625 C 4.601562 -10.765625 5.148438 -10.644531 5.578125 -10.40625 C 6.015625 -10.175781 6.34375 -9.863281 6.5625 -9.46875 C 6.78125 -9.082031 6.890625 -8.640625 6.890625 -8.140625 C 6.890625 -7.785156 6.832031 -7.441406 6.71875 -7.109375 C 6.613281 -6.785156 6.425781 -6.425781 6.15625 -6.03125 C 5.882812 -5.644531 5.5 -5.1875 5 -4.65625 C 4.507812 -4.125 3.878906 -3.476562 3.109375 -2.71875 L 1.15625 -0.8125 L 5.921875 -0.8125 C 6.347656 -0.8125 6.632812 -0.890625 6.78125 -1.046875 C 6.9375 -1.203125 7.03125 -1.5 7.0625 -1.9375 L 7.09375 -2.265625 L 7.234375 -2.265625 L 7.140625 0 Z M 0.890625 0 "/></g></g></g><g fill="#000000" fill-opacity="1"><g transform="translate(221.57889, 315.781472)"><g><path d="M 4.15625 0.15625 C 2.96875 0.15625 2.101562 -0.316406 1.5625 -1.265625 C 1.03125 -2.210938 0.765625 -3.566406 0.765625 -5.328125 C 0.765625 -7.054688 1.03125 -8.394531 1.5625 -9.34375 C 2.101562 -10.289062 2.972656 -10.765625 4.171875 -10.765625 C 5.328125 -10.765625 6.175781 -10.289062 6.71875 -9.34375 C 7.269531 -8.40625 7.546875 -7.0625 7.546875 -5.3125 C 7.546875 -3.59375 7.269531 -2.25 6.71875 -1.28125 C 6.164062 -0.320312 5.3125 0.15625 4.15625 0.15625 Z M 4.15625 0 C 4.71875 0 5.171875 -0.175781 5.515625 -0.53125 C 5.859375 -0.894531 6.109375 -1.46875 6.265625 -2.25 C 6.429688 -3.03125 6.515625 -4.050781 6.515625 -5.3125 C 6.515625 -6.5625 6.4375 -7.578125 6.28125 -8.359375 C 6.132812 -9.140625 5.890625 -9.707031 5.546875 -10.0625 C 5.210938 -10.425781 4.753906 -10.609375 4.171875 -10.609375 C 3.578125 -10.609375 3.109375 -10.425781 2.765625 -10.0625 C 2.421875 -9.695312 2.171875 -9.125 2.015625 -8.34375 C 1.867188 -7.5625 1.796875 -6.550781 1.796875 -5.3125 C 1.796875 -4.039062 1.875 -3.015625 2.03125 -2.234375 C 2.195312 -1.453125 2.453125 -0.882812 2.796875 -0.53125 C 3.140625 -0.175781 3.59375 0 4.15625 0 Z M 4.15625 0 "/></g></g></g><g fill="#000000" fill-opacity="1"><g transform="translate(235.455058, 315.781472)"><g><path d="M 0.890625 0 L 0.890625 -0.75 L 3.21875 -3.265625 C 3.757812 -3.835938 4.195312 -4.34375 4.53125 -4.78125 C 4.875 -5.21875 5.144531 -5.609375 5.34375 -5.953125 C 5.539062 -6.304688 5.679688 -6.648438 5.765625 -6.984375 C 5.847656 -7.316406 5.890625 -7.675781 5.890625 -8.0625 C 5.890625 -8.851562 5.738281 -9.472656 5.4375 -9.921875 C 5.144531 -10.378906 4.644531 -10.609375 3.9375 -10.609375 C 3.28125 -10.609375 2.796875 -10.410156 2.484375 -10.015625 C 2.171875 -9.628906 2.019531 -8.988281 2.03125 -8.09375 C 1.78125 -8.09375 1.570312 -8.15625 1.40625 -8.28125 C 1.238281 -8.40625 1.15625 -8.617188 1.15625 -8.921875 C 1.15625 -9.222656 1.257812 -9.515625 1.46875 -9.796875 C 1.6875 -10.078125 2 -10.304688 2.40625 -10.484375 C 2.820312 -10.671875 3.332031 -10.765625 3.9375 -10.765625 C 4.601562 -10.765625 5.148438 -10.644531 5.578125 -10.40625 C 6.015625 -10.175781 6.34375 -9.863281 6.5625 -9.46875 C 6.78125 -9.082031 6.890625 -8.640625 6.890625 -8.140625 C 6.890625 -7.785156 6.832031 -7.441406 6.71875 -7.109375 C 6.613281 -6.785156 6.425781 -6.425781 6.15625 -6.03125 C 5.882812 -5.644531 5.5 -5.1875 5 -4.65625 C 4.507812 -4.125 3.878906 -3.476562 3.109375 -2.71875 L 1.15625 -0.8125 L 5.921875 -0.8125 C 6.347656 -0.8125 6.632812 -0.890625 6.78125 -1.046875 C 6.9375 -1.203125 7.03125 -1.5 7.0625 -1.9375 L 7.09375 -2.265625 L 7.234375 -2.265625 L 7.140625 0 Z M 0.890625 0 "/></g></g></g><g fill="#000000" fill-opacity="1"><g transform="translate(249.331227, 315.781472)"><g><path d="M 3.546875 0 L 3.546875 -0.15625 L 4.125 -0.15625 C 4.507812 -0.15625 4.78125 -0.234375 4.9375 -0.390625 C 5.09375 -0.554688 5.171875 -0.867188 5.171875 -1.328125 L 5.171875 -2.984375 L 0.296875 -2.984375 L 0.296875 -3.453125 L 5.171875 -10.609375 L 6.140625 -10.609375 L 6.140625 -3.609375 L 8.09375 -3.609375 L 8.09375 -2.984375 L 6.140625 -2.984375 L 6.140625 -1.328125 C 6.140625 -0.867188 6.210938 -0.554688 6.359375 -0.390625 C 6.515625 -0.234375 6.785156 -0.15625 7.171875 -0.15625 L 7.546875 -0.15625 L 7.546875 0 Z M 0.578125 -3.609375 L 5.171875 -3.609375 L 5.171875 -6.5625 C 5.171875 -6.78125 5.171875 -7.054688 5.171875 -7.390625 C 5.171875 -7.734375 5.171875 -8.085938 5.171875 -8.453125 C 5.179688 -8.828125 5.1875 -9.1875 5.1875 -9.53125 C 5.195312 -9.882812 5.203125 -10.175781 5.203125 -10.40625 C 5.015625 -10.113281 4.800781 -9.789062 4.5625 -9.4375 C 4.320312 -9.09375 4.097656 -8.765625 3.890625 -8.453125 Z M 0.578125 -3.609375 "/></g></g></g><g clip-path="url(#c25ab1b773)"><g clip-path="url(#96456832cb)"><g clip-path="url(#26d8e05ab9)"><g clip-path="url(#a91f4dd32b)"><g clip-path="url(#86bdbc55f9)"><path fill="url(#1f971f8e38)" d="M 64.878906 175.585938 L 59.359375 182.066406 L 65.886719 187.621094 L 71.402344 181.136719 Z M 64.878906 175.585938 " fill-rule="nonzero"/></g></g></g></g></g><g clip-path="url(#03eeee2188)"><g clip-path="url(#6fb670d124)"><g clip-path="url(#8346b87c98)"><g clip-path="url(#9f35971124)"><path fill="#ffe98d" d="M 66.542969 180.238281 C 68.0625 181.53125 68.757812 183.230469 68.152344 184.117188 C 68.183594 184.089844 68.210938 184.0625 68.234375 184.03125 C 68.960938 183.175781 68.273438 181.398438 66.699219 180.054688 C 65.121094 178.714844 63.253906 178.320312 62.527344 179.175781 C 62.503906 179.203125 62.476562 179.234375 62.457031 179.269531 C 63.234375 178.53125 65.023438 178.945312 66.542969 180.238281 Z M 66.542969 180.238281 " fill-opacity="1" fill-rule="nonzero"/></g></g></g></g><g clip-path="url(#6a2bfc566e)"><g clip-path="url(#0559448cc1)"><g clip-path="url(#6db517adeb)"><g clip-path="url(#c19744ed35)"><g clip-path="url(#b984e21e3c)"><path fill="url(#894cff6d81)" d="M 65.652344 176.328125 L 61.570312 181.121094 L 66.378906 185.214844 L 70.460938 180.421875 Z M 65.652344 176.328125 " fill-rule="nonzero"/></g></g></g></g></g><g clip-path="url(#332b249851)"><g clip-path="url(#1d3065abaf)"><g clip-path="url(#a62202d7ff)"><g clip-path="url(#2731fd96be)"><path fill="#ffe98d" d="M 67.253906 179.324219 L 67.332031 179.390625 C 67.550781 179.574219 67.722656 179.792969 67.855469 180.046875 C 67.988281 180.300781 68.066406 180.574219 68.09375 180.863281 C 68.121094 181.152344 68.097656 181.4375 68.015625 181.722656 C 67.9375 182.003906 67.8125 182.265625 67.636719 182.507812 C 67.660156 182.484375 67.679688 182.464844 67.699219 182.441406 C 67.902344 182.203125 68.054688 181.9375 68.152344 181.640625 C 68.253906 181.347656 68.292969 181.050781 68.277344 180.742188 C 68.257812 180.4375 68.183594 180.152344 68.050781 179.878906 C 67.917969 179.609375 67.734375 179.378906 67.507812 179.183594 L 67.429688 179.117188 C 67.199219 178.921875 66.941406 178.78125 66.65625 178.695312 C 66.367188 178.605469 66.070312 178.578125 65.765625 178.609375 C 65.460938 178.640625 65.171875 178.726562 64.898438 178.871094 C 64.625 179.019531 64.386719 179.210938 64.183594 179.449219 C 64.164062 179.472656 64.144531 179.496094 64.128906 179.523438 C 64.335938 179.3125 64.574219 179.144531 64.84375 179.019531 C 65.109375 178.894531 65.390625 178.824219 65.679688 178.808594 C 65.96875 178.789062 66.25 178.824219 66.519531 178.914062 C 66.792969 179 67.039062 179.136719 67.253906 179.324219 Z M 67.253906 179.324219 " fill-opacity="1" fill-rule="nonzero"/></g></g></g></g><g clip-path="url(#27416beeb1)"><g clip-path="url(#29b7410b19)"><g clip-path="url(#c768e5602d)"><g clip-path="url(#fcd5fd8253)"><g clip-path="url(#ca90874866)"><path fill="url(#02f16fbcc1)" d="M 65.5 177.089844 L 61.859375 181.367188 L 66.171875 185.039062 L 69.8125 180.761719 Z M 65.5 177.089844 " fill-rule="nonzero"/></g></g></g></g></g><g clip-path="url(#fdd9f7778b)"><g clip-path="url(#90309b2530)"><g clip-path="url(#e4fa1789a8)"><g clip-path="url(#90f2c25bc8)"><path fill="#d66262" d="M 65.53125 181.429688 C 64.660156 180.6875 64.230469 179.730469 64.472656 179.164062 C 64.453125 179.175781 64.4375 179.191406 64.421875 179.207031 C 64.148438 179.773438 64.578125 180.75 65.464844 181.503906 C 66.351562 182.257812 67.386719 182.527344 67.898438 182.167969 C 67.914062 182.148438 67.925781 182.128906 67.9375 182.109375 C 67.414062 182.441406 66.398438 182.167969 65.53125 181.429688 Z M 65.53125 181.429688 " fill-opacity="1" fill-rule="nonzero"/></g></g></g></g><g clip-path="url(#3868aa2400)"><g clip-path="url(#04c1335196)"><g clip-path="url(#a81365a5e3)"><g clip-path="url(#6cfb54c757)"><path fill="#9e662e" d="M 64.210938 182.980469 C 62.6875 181.683594 61.992188 179.976562 62.605469 179.09375 C 62.578125 179.117188 62.550781 179.144531 62.527344 179.175781 C 61.800781 180.027344 62.488281 181.808594 64.066406 183.148438 C 65.640625 184.492188 67.507812 184.886719 68.234375 184.03125 C 68.261719 184.003906 68.28125 183.972656 68.304688 183.941406 C 67.527344 184.6875 65.734375 184.277344 64.210938 182.980469 Z M 64.210938 182.980469 " fill-opacity="1" fill-rule="nonzero"/></g></g></g></g><g clip-path="url(#7d87baaa42)"><g clip-path="url(#4b39f1e349)"><g clip-path="url(#c3a86d5d42)"><g clip-path="url(#c9360991e4)"><path fill="#ffe98d" d="M 67.488281 179.898438 C 67.429688 179.96875 67.363281 179.976562 67.296875 179.917969 C 67.230469 179.863281 67.226562 179.796875 67.285156 179.726562 C 67.347656 179.65625 67.410156 179.652344 67.476562 179.707031 C 67.542969 179.765625 67.546875 179.828125 67.488281 179.898438 Z M 67.488281 179.898438 " fill-opacity="1" fill-rule="nonzero"/></g></g></g></g><g clip-path="url(#15cad032e2)"><g clip-path="url(#be2fb79365)"><g clip-path="url(#d4c814509f)"><g clip-path="url(#e294897a17)"><path fill="#ffe98d" d="M 67.691406 180.132812 C 67.652344 180.179688 67.609375 180.183594 67.566406 180.148438 C 67.519531 180.109375 67.519531 180.066406 67.558594 180.019531 C 67.597656 179.972656 67.640625 179.96875 67.683594 180.007812 C 67.730469 180.046875 67.730469 180.085938 67.691406 180.132812 Z M 67.691406 180.132812 " fill-opacity="1" fill-rule="nonzero"/></g></g></g></g><g clip-path="url(#27d30c96dc)"><g clip-path="url(#c28026ae67)"><g clip-path="url(#3e7c2fe1ff)"><g clip-path="url(#11cb4836ac)"><path fill="#ffe98d" d="M 68.160156 182.953125 C 68.121094 183 68.078125 183.003906 68.035156 182.964844 C 67.988281 182.929688 67.988281 182.886719 68.027344 182.839844 C 68.066406 182.792969 68.109375 182.789062 68.152344 182.828125 C 68.199219 182.863281 68.199219 182.90625 68.160156 182.953125 Z M 68.160156 182.953125 " fill-opacity="1" fill-rule="nonzero"/></g></g></g></g><g clip-path="url(#c120af03ff)"><g clip-path="url(#51d810cb38)"><g clip-path="url(#2b54787f50)"><g clip-path="url(#b372477153)"><path fill="#9e662e" d="M 66.328125 179.847656 C 66.328125 179.824219 66.175781 179.820312 65.960938 179.832031 C 65.960938 179.789062 65.957031 179.742188 65.953125 179.695312 C 65.953125 179.644531 65.949219 179.597656 65.945312 179.554688 C 66.160156 179.523438 66.308594 179.488281 66.304688 179.464844 C 66.304688 179.441406 66.152344 179.433594 65.933594 179.449219 C 65.914062 179.234375 65.882812 179.082031 65.859375 179.085938 C 65.835938 179.085938 65.828125 179.238281 65.828125 179.457031 C 65.785156 179.460938 65.738281 179.464844 65.691406 179.46875 C 65.644531 179.472656 65.597656 179.476562 65.550781 179.484375 C 65.53125 179.269531 65.5 179.121094 65.476562 179.125 C 65.453125 179.128906 65.441406 179.28125 65.445312 179.5 C 65.230469 179.527344 65.082031 179.566406 65.082031 179.589844 C 65.082031 179.613281 65.234375 179.617188 65.449219 179.605469 C 65.449219 179.648438 65.453125 179.695312 65.457031 179.742188 C 65.460938 179.792969 65.460938 179.839844 65.464844 179.882812 C 65.253906 179.914062 65.105469 179.949219 65.105469 179.972656 C 65.105469 179.996094 65.257812 180.003906 65.472656 179.988281 C 65.496094 180.207031 65.523438 180.355469 65.550781 180.351562 C 65.574219 180.351562 65.582031 180.199219 65.582031 179.984375 C 65.625 179.980469 65.671875 179.976562 65.71875 179.96875 C 65.769531 179.964844 65.816406 179.960938 65.859375 179.953125 C 65.878906 180.167969 65.910156 180.316406 65.933594 180.316406 C 65.957031 180.3125 65.96875 180.160156 65.964844 179.941406 C 66.179688 179.910156 66.328125 179.875 66.328125 179.847656 Z M 65.714844 179.855469 C 65.667969 179.859375 65.621094 179.863281 65.578125 179.871094 C 65.578125 179.824219 65.574219 179.78125 65.570312 179.734375 C 65.566406 179.6875 65.566406 179.640625 65.5625 179.597656 C 65.605469 179.59375 65.652344 179.589844 65.699219 179.585938 C 65.746094 179.582031 65.789062 179.574219 65.832031 179.570312 C 65.835938 179.613281 65.835938 179.660156 65.839844 179.707031 C 65.84375 179.753906 65.847656 179.796875 65.847656 179.84375 C 65.804688 179.84375 65.757812 179.847656 65.714844 179.855469 Z M 65.714844 179.855469 " fill-opacity="1" fill-rule="nonzero"/></g></g></g></g><g clip-path="url(#ffc2782d85)"><g clip-path="url(#48b32f482e)"><g clip-path="url(#819e37d17b)"><g clip-path="url(#e8567a4b4e)"><path fill="#9e662e" d="M 67.902344 183.613281 C 67.902344 183.597656 67.792969 183.59375 67.636719 183.601562 C 67.632812 183.570312 67.632812 183.535156 67.628906 183.5 C 67.628906 183.464844 67.625 183.429688 67.625 183.398438 C 67.777344 183.375 67.886719 183.347656 67.886719 183.332031 C 67.886719 183.3125 67.773438 183.3125 67.617188 183.320312 C 67.601562 183.164062 67.578125 183.054688 67.5625 183.054688 C 67.546875 183.058594 67.535156 183.167969 67.539062 183.324219 C 67.507812 183.328125 67.472656 183.332031 67.4375 183.335938 C 67.402344 183.339844 67.367188 183.34375 67.335938 183.347656 C 67.320312 183.191406 67.300781 183.082031 67.28125 183.085938 C 67.265625 183.085938 67.257812 183.199219 67.257812 183.355469 C 67.101562 183.378906 66.992188 183.40625 66.996094 183.421875 C 66.996094 183.441406 67.105469 183.441406 67.261719 183.433594 C 67.261719 183.464844 67.265625 183.5 67.265625 183.535156 C 67.269531 183.570312 67.269531 183.605469 67.273438 183.636719 C 67.117188 183.660156 67.011719 183.6875 67.011719 183.703125 C 67.011719 183.722656 67.121094 183.726562 67.28125 183.714844 C 67.296875 183.871094 67.316406 183.980469 67.335938 183.980469 C 67.351562 183.976562 67.359375 183.867188 67.355469 183.710938 C 67.390625 183.707031 67.425781 183.703125 67.460938 183.699219 C 67.496094 183.699219 67.527344 183.691406 67.5625 183.6875 C 67.578125 183.84375 67.597656 183.953125 67.613281 183.949219 C 67.632812 183.949219 67.640625 183.835938 67.636719 183.679688 C 67.792969 183.65625 67.902344 183.628906 67.902344 183.613281 Z M 67.453125 183.617188 C 67.421875 183.621094 67.386719 183.625 67.355469 183.628906 C 67.355469 183.59375 67.351562 183.5625 67.351562 183.527344 C 67.347656 183.492188 67.347656 183.460938 67.34375 183.429688 C 67.375 183.425781 67.410156 183.421875 67.441406 183.417969 C 67.476562 183.417969 67.511719 183.414062 67.542969 183.410156 C 67.542969 183.441406 67.542969 183.472656 67.546875 183.507812 C 67.550781 183.542969 67.550781 183.574219 67.554688 183.605469 C 67.523438 183.609375 67.488281 183.613281 67.453125 183.617188 Z M 67.453125 183.617188 " fill-opacity="1" fill-rule="nonzero"/></g></g></g></g><g clip-path="url(#6d3b5a5cb7)"><g clip-path="url(#e60162a266)"><g clip-path="url(#459cbd99bc)"><g clip-path="url(#b86c12f6d3)"><path fill="#9e662e" d="M 63.625 179.785156 C 63.625 179.769531 63.515625 179.765625 63.359375 179.773438 C 63.355469 179.742188 63.355469 179.707031 63.355469 179.671875 C 63.351562 179.636719 63.351562 179.601562 63.347656 179.570312 C 63.503906 179.546875 63.609375 179.519531 63.609375 179.503906 C 63.609375 179.488281 63.496094 179.484375 63.339844 179.492188 C 63.324219 179.335938 63.300781 179.226562 63.285156 179.226562 C 63.269531 179.230469 63.261719 179.339844 63.261719 179.496094 C 63.230469 179.5 63.195312 179.503906 63.160156 179.507812 C 63.125 179.511719 63.09375 179.515625 63.058594 179.519531 C 63.042969 179.363281 63.023438 179.253906 63.003906 179.257812 C 62.988281 179.257812 62.980469 179.371094 62.984375 179.527344 C 62.824219 179.550781 62.714844 179.578125 62.71875 179.59375 C 62.71875 179.613281 62.828125 179.613281 62.984375 179.605469 C 62.984375 179.640625 62.988281 179.671875 62.988281 179.707031 C 62.992188 179.742188 62.992188 179.777344 62.996094 179.808594 C 62.839844 179.832031 62.734375 179.859375 62.734375 179.875 C 62.734375 179.894531 62.847656 179.898438 63.003906 179.886719 C 63.019531 180.042969 63.039062 180.152344 63.058594 180.152344 C 63.074219 180.148438 63.082031 180.039062 63.082031 179.882812 C 63.113281 179.878906 63.148438 179.875 63.183594 179.871094 C 63.21875 179.871094 63.25 179.867188 63.285156 179.859375 C 63.300781 180.015625 63.320312 180.125 63.339844 180.121094 C 63.355469 180.121094 63.363281 180.007812 63.359375 179.851562 C 63.519531 179.828125 63.625 179.800781 63.625 179.785156 Z M 63.179688 179.789062 C 63.144531 179.792969 63.109375 179.796875 63.078125 179.800781 C 63.078125 179.765625 63.078125 179.734375 63.074219 179.699219 C 63.074219 179.667969 63.070312 179.632812 63.066406 179.601562 C 63.097656 179.597656 63.132812 179.59375 63.167969 179.59375 C 63.199219 179.589844 63.234375 179.585938 63.265625 179.582031 C 63.265625 179.613281 63.269531 179.644531 63.269531 179.679688 C 63.273438 179.714844 63.273438 179.746094 63.277344 179.777344 C 63.246094 179.78125 63.210938 179.785156 63.179688 179.789062 Z M 63.179688 179.789062 " fill-opacity="1" fill-rule="nonzero"/></g></g></g></g></svg>